<?xml version="1.0" encoding="utf-8"?>
<!-- Generator: Adobe Illustrator 16.0.3, SVG Export Plug-In . SVG Version: 6.00 Build 0)  -->
<!DOCTYPE svg PUBLIC "-//W3C//DTD SVG 1.1//EN" "http://www.w3.org/Graphics/SVG/1.1/DTD/svg11.dtd">
<svg version="1.1" id="Capa_1" xmlns="http://www.w3.org/2000/svg" xmlns:xlink="http://www.w3.org/1999/xlink" x="0px" y="0px"
	 width="1200px" height="2100px" viewBox="0 0 1400 2100" enable-background="new 0 0 1400 2100" xml:space="preserve">
<path opacity="0.2" fill="#4D4D4D" stroke="#4D4D4D" stroke-miterlimit="10" d="M183.168,77.371h17.164v90.566h23.477V78.596
	l11.416,2.318c0,0,2.323,21.873,13.551,38.709c5.998,7.152,30.38,25.733,33.669,33.279c2.126,0,2.126,0,2.126,0
	s-0.385-35.991-17.606-59.791c5.997,4.252,44.315,23.096,60.763,74.825c-16.546,0-84.824,0-84.824,0v8.578v6.645h89.276v16.771
	h-89.276v23.48h89.276l-3.097,12.903c0,0-25.545,1.934-46.061,20.122c-3.674,4.063-11.026,15.673-26.314,27.863
	c0.192,1.36,0.192,1.36,0.192,1.36s33.865,0.386,60.377-17.999c-2.9,5.997-22.768,43.454-74.374,60.725c0-14.182,0-84.525,0-84.525
	h-15.805v91.53h-17.029l-0.191-91.145l-23.866-0.197v88.827l-12.707-2.713c0,0-1.745-28.248-18.39-44.503
	c-2.125-2.523-18.576-15.1-28.638-27.487c-2.13,0.582-2.13,0.582-2.13,0.582s2.322,37.352,17.804,59.029
	c-3.679-2.138-45.667-27.486-60.376-73.924c12.386-0.196,84.954,0,84.954,0v-15.804H75.963v-16.255h90.18l0.188-23.096
	l-88.433,0.197l2.515-13.748c0,0,26.513-2.318,43.93-17.803c3.482-3.098,18.573-25.35,28.446-29.798
	c0.385-2.515,0.385-2.515,0.385-2.515s-28.061-1.353-60.762,18.966c3.289-6.775,31.35-50.894,76.05-61.543
	c0,6.676,0,85.475,0,85.475h14.706V77.371z"/>
<linearGradient id="SVGID_1_" gradientUnits="userSpaceOnUse" x1="730.4551" y1="889.3018" x2="986.6719" y2="889.3018">
	<stop  offset="0" style="stop-color:#FFFF25"/>
	<stop  offset="0.0595" style="stop-color:#FEE916"/>
	<stop  offset="0.1303" style="stop-color:#FED50E"/>
	<stop  offset="0.2032" style="stop-color:#FECA06"/>
	<stop  offset="0.2809" style="stop-color:#FEC600"/>
	<stop  offset="0.6685" style="stop-color:#FB7B1E"/>
	<stop  offset="0.8876" style="stop-color:#F9441B"/>
	<stop  offset="1" style="stop-color:#F71818"/>
</linearGradient>
<linearGradient id="SVGID_2_" gradientUnits="userSpaceOnUse" x1="729.9551" y1="889.3018" x2="987.3057" y2="889.3018">
	<stop  offset="0" style="stop-color:#FFFF25"/>
	<stop  offset="0.0595" style="stop-color:#FEE916"/>
	<stop  offset="0.1303" style="stop-color:#FED50E"/>
	<stop  offset="0.2032" style="stop-color:#FECA06"/>
	<stop  offset="0.2809" style="stop-color:#FEC600"/>
	<stop  offset="0.6685" style="stop-color:#FB7B1E"/>
	<stop  offset="0.8876" style="stop-color:#F9441B"/>
	<stop  offset="1" style="stop-color:#F71818"/>
</linearGradient>
<path opacity="0.2" fill="url(#SVGID_1_)" stroke="url(#SVGID_2_)" stroke-miterlimit="10" d="M837.66,760.292h17.164v90.566h23.477
	v-89.341l11.416,2.318c0,0,2.324,21.873,13.551,38.709c5.998,7.152,30.381,25.733,33.67,33.279c2.125,0,2.125,0,2.125,0
	s-0.385-35.991-17.605-59.791c5.996,4.252,44.314,23.096,60.762,74.825c-16.545,0-84.824,0-84.824,0v8.578v6.645h89.277v16.771
	h-89.277v23.48h89.277l-3.098,12.903c0,0-25.545,1.934-46.061,20.122c-3.674,4.063-11.025,15.673-26.314,27.863
	c0.193,1.36,0.193,1.36,0.193,1.36s33.865,0.386,60.377-17.999c-2.9,5.997-22.768,43.454-74.375,60.725c0-14.182,0-84.525,0-84.525
	H881.59v91.53h-17.029l-0.191-91.145l-23.865-0.197v88.827l-12.708-2.713c0,0-1.744-28.248-18.389-44.503
	c-2.125-2.523-18.576-15.1-28.639-27.487c-2.129,0.582-2.129,0.582-2.129,0.582s2.322,37.352,17.803,59.029
	c-3.678-2.138-45.666-27.486-60.375-73.924c12.385-0.196,84.953,0,84.953,0v-15.804h-90.565v-16.255h90.181l0.188-23.096
	l-88.432,0.197l2.514-13.748c0,0,26.514-2.318,43.93-17.803c3.482-3.098,18.574-25.35,28.447-29.798
	c0.385-2.515,0.385-2.515,0.385-2.515s-28.061-1.353-60.762,18.966c3.289-6.775,31.35-50.894,76.049-61.543
	c0,6.676,0,85.475,0,85.475h14.706V760.292z"/>
<path opacity="0.2" fill="#4D4D4D" stroke="#4D4D4D" stroke-miterlimit="10" d="M512.872,77.371h17.164v90.566h23.477V78.596
	l11.416,2.318c0,0,2.324,21.873,13.551,38.709c5.998,7.152,30.381,25.733,33.67,33.279c2.125,0,2.125,0,2.125,0
	s-0.385-35.991-17.605-59.791c5.996,4.252,44.314,23.096,60.762,74.825c-16.545,0-84.824,0-84.824,0v8.578v6.645h89.277v16.771
	h-89.277v23.48h89.277l-3.098,12.903c0,0-25.545,1.934-46.061,20.122c-3.674,4.063-11.025,15.673-26.314,27.863
	c0.193,1.36,0.193,1.36,0.193,1.36s33.865,0.386,60.377-17.999c-2.9,5.997-22.768,43.454-74.375,60.725c0-14.182,0-84.525,0-84.525
	h-15.805v91.53h-17.029l-0.191-91.145l-23.865-0.197v88.827l-12.708-2.713c0,0-1.745-28.248-18.39-44.503
	c-2.125-2.523-18.576-15.1-28.638-27.487c-2.13,0.582-2.13,0.582-2.13,0.582s2.322,37.352,17.804,59.029
	c-3.679-2.138-45.667-27.486-60.376-73.924c12.386-0.196,84.954,0,84.954,0v-15.804h-90.566v-16.255h90.18l0.188-23.096
	l-88.433,0.197l2.515-13.748c0,0,26.513-2.318,43.93-17.803c3.482-3.098,18.573-25.35,28.446-29.798
	c0.385-2.515,0.385-2.515,0.385-2.515s-28.061-1.353-60.762,18.966c3.289-6.775,31.35-50.894,76.05-61.543
	c0,6.676,0,85.475,0,85.475h14.706V77.371z"/>
<path opacity="0.2" fill="#4D4D4D" stroke="#4D4D4D" stroke-miterlimit="10" d="M837.275,77.371h17.164v90.566h23.477V78.596
	l11.416,2.318c0,0,2.324,21.873,13.551,38.709c5.998,7.152,30.381,25.733,33.67,33.279c2.125,0,2.125,0,2.125,0
	s-0.385-35.991-17.605-59.791c5.996,4.252,44.314,23.096,60.762,74.825c-16.545,0-84.824,0-84.824,0v8.578v6.645h89.277v16.771
	H897.01v23.48h89.277l-3.098,12.903c0,0-25.545,1.934-46.061,20.122c-3.674,4.063-11.025,15.673-26.314,27.863
	c0.193,1.36,0.193,1.36,0.193,1.36s33.865,0.386,60.377-17.999c-2.9,5.997-22.768,43.454-74.375,60.725c0-14.182,0-84.525,0-84.525
	h-15.805v91.53h-17.029l-0.191-91.145l-23.865-0.197v88.827l-12.707-2.713c0,0-1.746-28.248-18.391-44.503
	c-2.125-2.523-18.576-15.1-28.637-27.487c-2.131,0.582-2.131,0.582-2.131,0.582s2.322,37.352,17.805,59.029
	c-3.68-2.138-45.668-27.486-60.377-73.924c12.387-0.196,84.955,0,84.955,0v-15.804H730.07v-16.255h90.18l0.189-23.096l-88.434,0.197
	l2.516-13.748c0,0,26.512-2.318,43.93-17.803c3.482-3.098,18.572-25.35,28.445-29.798c0.385-2.515,0.385-2.515,0.385-2.515
	s-28.061-1.353-60.762,18.966c3.289-6.775,31.35-50.894,76.051-61.543c0,6.676,0,85.475,0,85.475h14.705V77.371z"/>
<path opacity="0.2" fill="#4D4D4D" stroke="#4D4D4D" stroke-miterlimit="10" d="M183.167,414.184h17.164v90.566h23.477v-89.341
	l11.416,2.318c0,0,2.324,21.873,13.551,38.709c5.998,7.152,30.381,25.733,33.67,33.279c2.125,0,2.125,0,2.125,0
	s-0.385-35.991-17.605-59.791c5.996,4.252,44.314,23.096,60.762,74.825c-16.545,0-84.824,0-84.824,0v8.578v6.645h89.277v16.771
	h-89.277v23.48h89.277l-3.098,12.903c0,0-25.545,1.934-46.061,20.122c-3.674,4.063-11.025,15.673-26.314,27.863
	c0.193,1.36,0.193,1.36,0.193,1.36s33.865,0.386,60.377-17.999c-2.9,5.997-22.768,43.454-74.375,60.725c0-14.182,0-84.525,0-84.525
	h-15.805v91.53h-17.029l-0.191-91.145l-23.865-0.197v88.827l-12.708-2.713c0,0-1.745-28.248-18.39-44.503
	c-2.125-2.523-18.576-15.1-28.638-27.487c-2.13,0.582-2.13,0.582-2.13,0.582s2.322,37.352,17.804,59.029
	c-3.679-2.138-45.667-27.486-60.376-73.924c12.386-0.196,84.954,0,84.954,0v-15.804H75.962v-16.255h90.18l0.188-23.096
	l-88.433,0.197l2.515-13.748c0,0,26.513-2.318,43.93-17.803c3.482-3.098,18.573-25.35,28.446-29.798
	c0.385-2.515,0.385-2.515,0.385-2.515s-28.061-1.353-60.762,18.966c3.289-6.775,31.35-50.894,76.05-61.543
	c0,6.676,0,85.475,0,85.475h14.706V414.184z"/>
<linearGradient id="SVGID_3_" gradientUnits="userSpaceOnUse" x1="730.0703" y1="543.1934" x2="986.2871" y2="543.1934">
	<stop  offset="0" style="stop-color:#FFFF25"/>
	<stop  offset="0.0595" style="stop-color:#FEE916"/>
	<stop  offset="0.1303" style="stop-color:#FED50E"/>
	<stop  offset="0.2032" style="stop-color:#FECA06"/>
	<stop  offset="0.2809" style="stop-color:#FEC600"/>
	<stop  offset="0.6685" style="stop-color:#FB7B1E"/>
	<stop  offset="0.8876" style="stop-color:#F9441B"/>
	<stop  offset="1" style="stop-color:#F71818"/>
</linearGradient>
<linearGradient id="SVGID_4_" gradientUnits="userSpaceOnUse" x1="729.5703" y1="543.1934" x2="986.9209" y2="543.1934">
	<stop  offset="0" style="stop-color:#FFFF25"/>
	<stop  offset="0.0595" style="stop-color:#FEE916"/>
	<stop  offset="0.1303" style="stop-color:#FED50E"/>
	<stop  offset="0.2032" style="stop-color:#FECA06"/>
	<stop  offset="0.2809" style="stop-color:#FEC600"/>
	<stop  offset="0.6685" style="stop-color:#FB7B1E"/>
	<stop  offset="0.8876" style="stop-color:#F9441B"/>
	<stop  offset="1" style="stop-color:#F71818"/>
</linearGradient>
<path opacity="0.2" fill="url(#SVGID_3_)" stroke="url(#SVGID_4_)" stroke-miterlimit="10" d="M837.275,414.184h17.164v90.566
	h23.477v-89.341l11.416,2.318c0,0,2.324,21.873,13.551,38.709c5.998,7.152,30.381,25.733,33.67,33.279c2.125,0,2.125,0,2.125,0
	s-0.385-35.991-17.605-59.791c5.996,4.252,44.314,23.096,60.762,74.825c-16.545,0-84.824,0-84.824,0v8.578v6.645h89.277v16.771
	H897.01v23.48h89.277l-3.098,12.903c0,0-25.545,1.934-46.061,20.122c-3.674,4.063-11.025,15.673-26.314,27.863
	c0.193,1.36,0.193,1.36,0.193,1.36s33.865,0.386,60.377-17.999c-2.9,5.997-22.768,43.454-74.375,60.725c0-14.182,0-84.525,0-84.525
	h-15.805v91.53h-17.029l-0.191-91.145l-23.865-0.197v88.827l-12.708-2.713c0,0-1.745-28.248-18.39-44.503
	c-2.125-2.523-18.576-15.1-28.638-27.487c-2.13,0.582-2.13,0.582-2.13,0.582s2.322,37.352,17.804,59.029
	c-3.679-2.138-45.667-27.486-60.376-73.924c12.386-0.196,84.954,0,84.954,0v-15.804H730.07v-16.255h90.18l0.188-23.096
	l-88.433,0.197l2.515-13.748c0,0,26.513-2.318,43.93-17.803c3.482-3.098,18.573-25.35,28.446-29.798
	c0.385-2.515,0.385-2.515,0.385-2.515s-28.061-1.353-60.762,18.966c3.289-6.775,31.35-50.894,76.05-61.543
	c0,6.676,0,85.475,0,85.475h14.706V414.184z"/>
<path opacity="0.2" fill="#4D4D4D" stroke="#4D4D4D" stroke-miterlimit="10" d="M492.132,757.908h17.164v90.566h23.477v-89.341
	l11.416,2.318c0,0,2.324,21.873,13.551,38.709c5.998,7.152,30.381,25.733,33.67,33.279c2.125,0,2.125,0,2.125,0
	s-0.385-35.991-17.605-59.791c5.996,4.252,44.314,23.096,60.762,74.825c-16.545,0-84.824,0-84.824,0v8.578v6.645h89.277v16.771
	h-89.277v23.48h89.277l-3.098,12.903c0,0-25.545,1.934-46.061,20.122c-3.674,4.063-11.025,15.673-26.314,27.863
	c0.193,1.36,0.193,1.36,0.193,1.36s33.865,0.386,60.377-17.999c-2.9,5.997-22.768,43.454-74.375,60.725c0-14.182,0-84.525,0-84.525
	h-15.805v91.53h-17.029l-0.191-91.145l-23.865-0.197v88.827l-12.709-2.713c0,0-1.744-28.248-18.389-44.503
	c-2.125-2.523-18.576-15.1-28.639-27.487c-2.129,0.582-2.129,0.582-2.129,0.582s2.322,37.352,17.803,59.029
	c-3.678-2.138-45.666-27.486-60.375-73.924c12.385-0.196,84.953,0,84.953,0v-15.804h-90.565v-16.255h90.181l0.188-23.096
	l-88.432,0.197l2.514-13.748c0,0,26.514-2.318,43.93-17.803c3.482-3.098,18.574-25.35,28.447-29.798
	c0.385-2.515,0.385-2.515,0.385-2.515s-28.061-1.353-60.762,18.966c3.289-6.775,31.35-50.894,76.049-61.543
	c0,6.676,0,85.475,0,85.475h14.707V757.908z"/>
<path opacity="0.2" fill="#4D4D4D" stroke="#4D4D4D" stroke-miterlimit="10" d="M183.167,757.908h17.164v90.565h23.477v-89.341
	l11.416,2.318c0,0,2.324,21.873,13.551,38.709c5.998,7.152,30.381,25.733,33.67,33.279c2.125,0,2.125,0,2.125,0
	s-0.385-35.991-17.605-59.791c5.996,4.252,44.314,23.096,60.762,74.825c-16.545,0-84.824,0-84.824,0v8.578v6.645h89.277v16.771
	h-89.277v23.48h89.277l-3.098,12.903c0,0-25.545,1.934-46.061,20.122c-3.674,4.063-11.025,15.673-26.314,27.863
	c0.193,1.36,0.193,1.36,0.193,1.36s33.865,0.386,60.377-17.999c-2.9,5.997-22.768,43.454-74.375,60.725c0-14.182,0-84.525,0-84.525
	h-15.805v91.53h-17.029l-0.191-91.145l-23.865-0.197v88.827l-12.708-2.713c0,0-1.745-28.248-18.39-44.503
	c-2.125-2.523-18.576-15.1-28.638-27.487c-2.13,0.582-2.13,0.582-2.13,0.582s2.322,37.352,17.804,59.029
	c-3.679-2.138-45.667-27.486-60.376-73.924c12.386-0.196,84.954,0,84.954,0v-15.804H75.961v-16.255h90.18l0.188-23.096
	l-88.433,0.197l2.515-13.748c0,0,26.513-2.318,43.93-17.803c3.482-3.098,18.573-25.35,28.446-29.798
	c0.385-2.515,0.385-2.515,0.385-2.515s-28.061-1.353-60.762,18.966c3.289-6.775,31.35-50.894,76.05-61.543
	c0,6.676,0,85.475,0,85.475h14.707V757.908z"/>
<path opacity="0.2" fill="#4D4D4D" stroke="#4D4D4D" stroke-miterlimit="10" d="M512.873,414.184h17.164v90.566h23.477V415.41
	l11.416,2.318c0,0,2.324,21.873,13.551,38.709c5.998,7.152,30.381,25.733,33.67,33.279c2.125,0,2.125,0,2.125,0
	s-0.385-35.991-17.605-59.791c5.996,4.252,44.314,23.096,60.762,74.825c-16.545,0-84.824,0-84.824,0v8.578v6.645h89.277v16.771
	h-89.277v23.48h89.277l-3.098,12.903c0,0-25.545,1.934-46.061,20.122c-3.674,4.063-11.025,15.673-26.314,27.863
	c0.193,1.36,0.193,1.36,0.193,1.36s33.865,0.386,60.377-17.999c-2.9,5.997-22.768,43.454-74.375,60.725c0-14.182,0-84.525,0-84.525
	h-15.805v91.53h-17.029l-0.191-91.145l-23.865-0.197v88.827l-12.708-2.713c0,0-1.745-28.248-18.39-44.503
	c-2.125-2.523-18.576-15.1-28.638-27.487c-2.13,0.582-2.13,0.582-2.13,0.582s2.322,37.352,17.804,59.029
	c-3.679-2.138-45.667-27.486-60.376-73.924c12.386-0.196,84.954,0,84.954,0V564.87h-90.566v-16.255h90.18l0.188-23.096
	l-88.433,0.197l2.515-13.748c0,0,26.513-2.318,43.93-17.803c3.482-3.098,18.573-25.35,28.446-29.798
	c0.385-2.515,0.385-2.515,0.385-2.515s-28.061-1.353-60.762,18.966c3.289-6.775,31.35-50.894,76.05-61.543
	c0,6.676,0,85.475,0,85.475h14.707V414.184z"/>
</svg>
