<?xml version="1.0" encoding="utf-8"?>
<!-- Generator: Adobe Illustrator 16.0.3, SVG Export Plug-In . SVG Version: 6.00 Build 0)  -->
<!DOCTYPE svg PUBLIC "-//W3C//DTD SVG 1.1//EN" "http://www.w3.org/Graphics/SVG/1.1/DTD/svg11.dtd">
<svg version="1.1" id="Capa_1" xmlns="http://www.w3.org/2000/svg" xmlns:xlink="http://www.w3.org/1999/xlink" x="0px" y="0px"
	 width="2560px" height="1440px" viewBox="0 0 2560 1440" enable-background="new 0 0 2560 1440" xml:space="preserve">
<rect x="0.5" y="0.5" opacity="0.6" fill="#FFFFFF" stroke="#FFFFFF" stroke-miterlimit="10" width="2560" height="1440"/>
<path opacity="0.6" fill="#40A629" stroke="#CCCCCC" stroke-miterlimit="10" d="M275.869,46.3h27.726v146.338h37.937V48.278
	l18.449,3.752c0,0,3.754,35.333,21.891,62.537c9.691,11.569,49.09,41.587,54.406,53.781c3.439,0,3.439,0,3.439,0
	s-0.627-58.158-28.455-96.618c9.691,6.878,71.605,37.32,98.182,120.908c-26.73,0-137.059,0-137.059,0v13.857v10.741h144.254v27.099
	H372.385v37.942h144.254l-5.006,20.84c0,0-41.273,3.126-74.418,32.522c-5.941,6.562-17.824,25.326-42.525,45.022
	c0.313,2.189,0.313,2.189,0.313,2.189s54.719,0.626,97.559-29.081c-4.691,9.696-36.793,70.217-120.176,98.117
	c0-22.914,0-136.575,0-136.575h-25.537v147.899h-27.516l-0.313-147.275l-38.563-0.313v143.523l-20.535-4.379
	c0,0-2.813-45.652-29.706-71.917c-3.438-4.064-30.019-24.39-46.275-44.403c-3.442,0.94-3.442,0.94-3.442,0.94
	s3.753,60.347,28.769,95.368c-5.942-3.44-73.793-44.402-97.557-119.444c20.011-0.314,137.268,0,137.268,0V289.78H102.642v-26.266
	h145.712l0.312-37.318l-142.896,0.313l4.063-22.202c0,0,42.839-3.751,70.981-28.767c5.628-5.003,30.018-40.962,45.964-48.153
	c0.626-4.064,0.626-4.064,0.626-4.064s-45.338-2.189-98.184,30.644c5.315-10.944,50.656-82.236,122.884-99.434
	c0,10.787,0,138.105,0,138.105h23.765V46.3z"/>
<path opacity="0.6" fill="#40A629" stroke="#E5E5E5" stroke-miterlimit="10" d="M266.727,512.044h27.726v146.338h37.937v-144.36
	l18.449,3.752c0,0,3.754,35.333,21.891,62.537c9.691,11.569,49.09,41.587,54.406,53.781c3.439,0,3.439,0,3.439,0
	s-0.627-58.158-28.455-96.618c9.691,6.878,71.605,37.32,98.182,120.908c-26.73,0-137.059,0-137.059,0v13.857v10.741h144.254v27.099
	H363.243v37.942h144.254l-5.006,20.84c0,0-41.273,3.126-74.418,32.522c-5.941,6.562-17.824,25.326-42.525,45.022
	c0.313,2.189,0.313,2.189,0.313,2.189s54.719,0.626,97.559-29.081c-4.691,9.696-36.793,70.217-120.176,98.117
	c0-22.914,0-136.575,0-136.575h-25.537v147.899H310.19l-0.313-147.275l-38.563-0.313v143.523l-20.535-4.379
	c0,0-2.813-45.652-29.706-71.917c-3.438-4.064-30.019-24.39-46.275-44.403c-3.442,0.94-3.442,0.94-3.442,0.94
	s3.753,60.347,28.769,95.368c-5.942-3.44-73.793-44.402-97.557-119.444c20.011-0.314,137.268,0,137.268,0v-25.532H93.5v-26.266
	h145.712l0.312-37.318l-142.896,0.313l4.063-22.202c0,0,42.839-3.751,70.981-28.767c5.628-5.003,30.018-40.962,45.964-48.153
	c0.626-4.064,0.626-4.064,0.626-4.064s-45.338-2.189-98.184,30.644c5.315-10.944,50.656-82.236,122.884-99.434
	c0,10.787,0,138.105,0,138.105h23.765V512.044z"/>
<path opacity="0.6" fill="#40A629" stroke="#E5E5E5" stroke-miterlimit="10" d="M266.727,978.064h27.726v146.338h37.937V980.043
	l18.449,3.752c0,0,3.754,35.333,21.891,62.537c9.691,11.568,49.09,41.586,54.406,53.781c3.439,0,3.439,0,3.439,0
	s-0.627-58.158-28.455-96.619c9.691,6.879,71.605,37.32,98.182,120.908c-26.73,0-137.059,0-137.059,0v13.857V1149h144.254v27.1
	H363.243v37.941h144.254l-5.006,20.84c0,0-41.273,3.127-74.418,32.523c-5.941,6.561-17.824,25.326-42.525,45.021
	c0.313,2.189,0.313,2.189,0.313,2.189s54.719,0.627,97.559-29.08c-4.691,9.695-36.793,70.217-120.176,98.117
	c0-22.914,0-136.576,0-136.576h-25.537v147.9H310.19l-0.313-147.275l-38.563-0.313v143.523l-20.535-4.379
	c0,0-2.813-45.652-29.706-71.918c-3.438-4.064-30.019-24.389-46.275-44.402c-3.442,0.939-3.442,0.939-3.442,0.939
	s3.753,60.348,28.769,95.369c-5.942-3.441-73.793-44.402-97.557-119.445c20.011-0.314,137.268,0,137.268,0v-25.531H93.5v-26.266
	h145.712l0.312-37.318l-142.896,0.313l4.063-22.201c0,0,42.839-3.752,70.981-28.768c5.628-5.004,30.018-40.962,45.964-48.153
	c0.626-4.064,0.626-4.064,0.626-4.064s-45.338-2.189-98.184,30.644c5.315-10.944,50.656-82.236,122.884-99.434
	c0,10.787,0,138.105,0,138.105h23.765V978.064z"/>
<path opacity="0.6" fill="#40A629" stroke="#CCCCCC" stroke-miterlimit="10" d="M753.869,46.3h27.726v146.338h37.937V48.278
	l18.449,3.752c0,0,3.754,35.333,21.891,62.537c9.691,11.569,49.09,41.587,54.406,53.781c3.439,0,3.439,0,3.439,0
	s-0.627-58.158-28.455-96.618c9.691,6.878,71.605,37.32,98.182,120.908c-26.73,0-137.059,0-137.059,0v13.857v10.741h144.254v27.099
	H850.385v37.942h144.254l-5.006,20.84c0,0-41.273,3.126-74.418,32.522c-5.941,6.562-17.824,25.326-42.525,45.022
	c0.313,2.189,0.313,2.189,0.313,2.189s54.719,0.626,97.559-29.081c-4.691,9.696-36.793,70.217-120.176,98.117
	c0-22.914,0-136.575,0-136.575h-25.537v147.899h-27.516l-0.313-147.275l-38.563-0.313v143.523l-20.535-4.379
	c0,0-2.813-45.652-29.706-71.917c-3.438-4.064-30.019-24.39-46.275-44.403c-3.442,0.94-3.442,0.94-3.442,0.94
	s3.753,60.347,28.769,95.368c-5.942-3.44-73.793-44.402-97.557-119.444c20.011-0.314,137.268,0,137.268,0V289.78H580.642v-26.266
	h145.712l0.312-37.318l-142.896,0.313l4.063-22.202c0,0,42.839-3.751,70.981-28.767c5.628-5.003,30.018-40.962,45.964-48.153
	c0.626-4.064,0.626-4.064,0.626-4.064s-45.338-2.189-98.184,30.644c5.315-10.944,50.656-82.236,122.884-99.434
	c0,10.787,0,138.105,0,138.105h23.765V46.3z"/>
<path opacity="0.6" fill="#40A629" stroke="#CCCCCC" stroke-miterlimit="10" d="M1231.984,46.3h27.725v146.338h37.938V48.278
	l18.449,3.752c0,0,3.754,35.333,21.891,62.537c9.691,11.569,49.09,41.587,54.406,53.781c3.439,0,3.439,0,3.439,0
	s-0.627-58.158-28.455-96.618c9.691,6.878,71.605,37.32,98.182,120.908c-26.73,0-137.059,0-137.059,0v13.857v10.741h144.254v27.099
	H1328.5v37.942h144.254l-5.006,20.84c0,0-41.273,3.126-74.418,32.522c-5.941,6.562-17.824,25.326-42.525,45.022
	c0.313,2.189,0.313,2.189,0.313,2.189s54.719,0.626,97.559-29.081c-4.691,9.696-36.793,70.217-120.176,98.117
	c0-22.914,0-136.575,0-136.575h-25.537v147.899h-27.516l-0.313-147.275l-38.563-0.313v143.523l-20.535-4.379
	c0,0-2.813-45.652-29.706-71.917c-3.438-4.064-30.019-24.39-46.275-44.403c-3.442,0.94-3.442,0.94-3.442,0.94
	s3.753,60.347,28.769,95.368c-5.942-3.44-73.793-44.402-97.557-119.444c20.011-0.314,137.268,0,137.268,0V289.78h-146.335v-26.266
	h145.712l0.312-37.318l-142.896,0.313l4.063-22.202c0,0,42.839-3.751,70.981-28.767c5.628-5.003,30.018-40.962,45.964-48.153
	c0.626-4.064,0.626-4.064,0.626-4.064s-45.338-2.189-98.184,30.644c5.315-10.944,50.656-82.236,122.884-99.434
	c0,10.787,0,138.105,0,138.105h23.765V46.3z"/>
<path opacity="0.6" fill="#40A629" stroke="#CCCCCC" stroke-miterlimit="10" d="M1718.869,46.3h27.725v146.338h37.938V48.278
	l18.449,3.752c0,0,3.754,35.333,21.891,62.537c9.691,11.569,49.09,41.587,54.406,53.781c3.439,0,3.439,0,3.439,0
	s-0.627-58.158-28.455-96.618c9.691,6.878,71.605,37.32,98.182,120.908c-26.73,0-137.059,0-137.059,0v13.857v10.741h144.254v27.099
	h-144.254v37.942h144.254l-5.006,20.84c0,0-41.273,3.126-74.418,32.522c-5.941,6.562-17.824,25.326-42.525,45.022
	c0.313,2.189,0.313,2.189,0.313,2.189s54.719,0.626,97.559-29.081c-4.691,9.696-36.793,70.217-120.176,98.117
	c0-22.914,0-136.575,0-136.575h-25.537v147.899h-27.516l-0.313-147.275l-38.563-0.313v143.523l-20.535-4.379
	c0,0-2.813-45.652-29.706-71.917c-3.438-4.064-30.019-24.39-46.275-44.403c-3.442,0.94-3.442,0.94-3.442,0.94
	s3.754,60.347,28.77,95.368c-5.942-3.44-73.794-44.402-97.558-119.444c20.011-0.314,137.268,0,137.268,0V289.78h-146.335v-26.266
	h145.711l0.313-37.318l-142.896,0.313l4.063-22.202c0,0,42.839-3.751,70.98-28.767c5.629-5.003,30.019-40.962,45.965-48.153
	c0.626-4.064,0.626-4.064,0.626-4.064s-45.339-2.189-98.184,30.644c5.315-10.944,50.655-82.236,122.884-99.434
	c0,10.787,0,138.105,0,138.105h23.766V46.3z"/>
<path opacity="0.6" fill="#40A629" stroke="#CCCCCC" stroke-miterlimit="10" d="M2213.369,46.3h27.725v146.338h37.938V48.278
	l18.449,3.752c0,0,3.754,35.333,21.891,62.537c9.691,11.569,49.09,41.587,54.406,53.781c3.439,0,3.439,0,3.439,0
	s-0.627-58.158-28.455-96.618c9.691,6.878,71.605,37.32,98.182,120.908c-26.73,0-137.059,0-137.059,0v13.857v10.741h144.254v27.099
	h-144.254v37.942h144.254l-5.006,20.84c0,0-41.273,3.126-74.418,32.522c-5.941,6.562-17.824,25.326-42.525,45.022
	c0.313,2.189,0.313,2.189,0.313,2.189s54.719,0.626,97.559-29.081c-4.691,9.696-36.793,70.217-120.176,98.117
	c0-22.914,0-136.575,0-136.575h-25.537v147.899h-27.516l-0.313-147.275l-38.563-0.313v143.523l-20.535-4.379
	c0,0-2.813-45.652-29.706-71.917c-3.438-4.064-30.019-24.39-46.275-44.403c-3.442,0.94-3.442,0.94-3.442,0.94
	s3.754,60.347,28.77,95.368c-5.942-3.44-73.794-44.402-97.558-119.444c20.011-0.314,137.268,0,137.268,0V289.78h-146.335v-26.266
	h145.711l0.313-37.318l-142.896,0.313l4.063-22.202c0,0,42.839-3.751,70.98-28.767c5.629-5.003,30.019-40.962,45.965-48.153
	c0.626-4.064,0.626-4.064,0.626-4.064s-45.339-2.189-98.184,30.644c5.315-10.944,50.655-82.236,122.884-99.434
	c0,10.787,0,138.105,0,138.105h23.766V46.3z"/>
<path opacity="0.6" fill="#40A629" stroke="#CCCCCC" stroke-miterlimit="10" d="M753.869,512.044h27.725v146.338h37.938v-144.36
	l18.449,3.752c0,0,3.754,35.333,21.891,62.537c9.691,11.569,49.09,41.587,54.406,53.781c3.439,0,3.439,0,3.439,0
	s-0.627-58.158-28.455-96.618c9.691,6.878,71.605,37.32,98.182,120.908c-26.73,0-137.059,0-137.059,0v13.857v10.741h144.254v27.099
	H850.385v37.942h144.254l-5.006,20.84c0,0-41.273,3.126-74.418,32.522c-5.941,6.562-17.824,25.326-42.525,45.022
	c0.313,2.189,0.313,2.189,0.313,2.189s54.719,0.626,97.559-29.081c-4.691,9.696-36.793,70.217-120.176,98.117
	c0-22.914,0-136.575,0-136.575h-25.537v147.899h-27.516l-0.313-147.275l-38.563-0.313v143.523l-20.535-4.379
	c0,0-2.813-45.652-29.706-71.917c-3.438-4.064-30.019-24.39-46.275-44.403c-3.442,0.94-3.442,0.94-3.442,0.94
	s3.754,60.347,28.77,95.368c-5.942-3.44-73.794-44.402-97.558-119.444c20.011-0.314,137.268,0,137.268,0v-25.532H580.643v-26.266
	h145.711l0.313-37.318l-142.896,0.313l4.063-22.202c0,0,42.839-3.751,70.98-28.767c5.629-5.003,30.019-40.962,45.965-48.153
	c0.626-4.064,0.626-4.064,0.626-4.064s-45.339-2.189-98.184,30.644c5.315-10.944,50.655-82.236,122.884-99.434
	c0,10.787,0,138.105,0,138.105h23.766V512.044z"/>
<path opacity="0.6" fill="#40A629" stroke="#E5E5E5" stroke-miterlimit="10" d="M1231.984,512.044h27.725v146.338h37.938v-144.36
	l18.449,3.752c0,0,3.754,35.333,21.891,62.537c9.691,11.569,49.09,41.587,54.406,53.781c3.439,0,3.439,0,3.439,0
	s-0.627-58.158-28.455-96.618c9.691,6.878,71.605,37.32,98.182,120.908c-26.73,0-137.059,0-137.059,0v13.857v10.741h144.254v27.099
	H1328.5v37.942h144.254l-5.006,20.84c0,0-41.273,3.126-74.418,32.522c-5.941,6.562-17.824,25.326-42.525,45.022
	c0.313,2.189,0.313,2.189,0.313,2.189s54.719,0.626,97.559-29.081c-4.691,9.696-36.793,70.217-120.176,98.117
	c0-22.914,0-136.575,0-136.575h-25.537v147.899h-27.516l-0.313-147.275l-38.563-0.313v143.523l-20.535-4.379
	c0,0-2.813-45.652-29.706-71.917c-3.438-4.064-30.019-24.39-46.275-44.403c-3.442,0.94-3.442,0.94-3.442,0.94
	s3.754,60.347,28.77,95.368c-5.942-3.44-73.794-44.402-97.558-119.444c20.011-0.314,137.268,0,137.268,0v-25.532h-146.335v-26.266
	h145.711l0.313-37.318l-142.896,0.313l4.063-22.202c0,0,42.839-3.751,70.98-28.767c5.629-5.003,30.019-40.962,45.965-48.153
	c0.626-4.064,0.626-4.064,0.626-4.064s-45.339-2.189-98.184,30.644c5.315-10.944,50.655-82.236,122.884-99.434
	c0,10.787,0,138.105,0,138.105h23.766V512.044z"/>
<path opacity="0.6" fill="#40A629" stroke="#CCCCCC" stroke-miterlimit="10" d="M1724.227,512.044h27.725v146.338h37.938v-144.36
	l18.449,3.752c0,0,3.754,35.333,21.891,62.537c9.691,11.569,49.09,41.587,54.406,53.781c3.439,0,3.439,0,3.439,0
	s-0.627-58.158-28.455-96.618c9.691,6.878,71.605,37.32,98.182,120.908c-26.73,0-137.059,0-137.059,0v13.857v10.741h144.254v27.099
	h-144.254v37.942h144.254l-5.006,20.84c0,0-41.273,3.126-74.418,32.522c-5.941,6.562-17.824,25.326-42.525,45.022
	c0.313,2.189,0.313,2.189,0.313,2.189s54.719,0.626,97.559-29.081c-4.691,9.696-36.793,70.217-120.176,98.117
	c0-22.914,0-136.575,0-136.575h-25.537v147.899h-27.516l-0.313-147.275l-38.563-0.313v143.523l-20.535-4.379
	c0,0-2.813-45.652-29.706-71.917c-3.438-4.064-30.019-24.39-46.275-44.403c-3.442,0.94-3.442,0.94-3.442,0.94
	s3.754,60.347,28.77,95.368c-5.942-3.44-73.794-44.402-97.558-119.444c20.011-0.314,137.268,0,137.268,0v-25.532H1551v-26.266
	h145.711l0.313-37.318l-142.896,0.313l4.063-22.202c0,0,42.839-3.751,70.98-28.767c5.629-5.003,30.019-40.962,45.965-48.153
	c0.626-4.064,0.626-4.064,0.626-4.064s-45.339-2.189-98.184,30.644c5.315-10.944,50.655-82.236,122.884-99.434
	c0,10.787,0,138.105,0,138.105h23.766V512.044z"/>
<path opacity="0.6" fill="#40A629" stroke="#CCCCCC" stroke-miterlimit="10" d="M2213.369,511.544h27.725v146.338h37.938v-144.36
	l18.449,3.752c0,0,3.754,35.333,21.891,62.537c9.691,11.569,49.09,41.587,54.406,53.781c3.439,0,3.439,0,3.439,0
	s-0.627-58.158-28.455-96.618c9.691,6.878,71.605,37.32,98.182,120.908c-26.73,0-137.059,0-137.059,0v13.857v10.741h144.254v27.099
	h-144.254v37.942h144.254l-5.006,20.84c0,0-41.273,3.126-74.418,32.522c-5.941,6.562-17.824,25.326-42.525,45.022
	c0.313,2.189,0.313,2.189,0.313,2.189s54.719,0.626,97.559-29.081c-4.691,9.696-36.793,70.217-120.176,98.117
	c0-22.914,0-136.575,0-136.575h-25.537v147.899h-27.516l-0.313-147.275l-38.563-0.313v143.523l-20.535-4.379
	c0,0-2.813-45.652-29.706-71.917c-3.438-4.064-30.019-24.39-46.275-44.403c-3.442,0.94-3.442,0.94-3.442,0.94
	s3.754,60.347,28.77,95.368c-5.942-3.44-73.794-44.402-97.558-119.444c20.011-0.314,137.268,0,137.268,0v-25.532h-146.335v-26.266
	h145.711l0.313-37.318l-142.896,0.313l4.063-22.202c0,0,42.839-3.751,70.98-28.767c5.629-5.003,30.019-40.962,45.965-48.153
	c0.626-4.064,0.626-4.064,0.626-4.064s-45.339-2.189-98.184,30.644c5.315-10.944,50.655-82.236,122.884-99.434
	c0,10.787,0,138.105,0,138.105h23.766V511.544z"/>
<path opacity="0.6" fill="#40A629" stroke="#E5E5E5" stroke-miterlimit="10" d="M753.869,978.064h27.726v146.339h37.937v-144.36
	l18.449,3.752c0,0,3.754,35.333,21.891,62.537c9.691,11.569,49.09,41.587,54.406,53.781c3.439,0,3.439,0,3.439,0
	s-0.627-58.158-28.455-96.618c9.691,6.879,71.605,37.32,98.182,120.908c-26.73,0-137.059,0-137.059,0v13.856v10.741h144.254v27.099
	H850.385v37.942h144.254l-5.006,20.84c0,0-41.273,3.126-74.418,32.522c-5.941,6.562-17.824,25.326-42.525,45.022
	c0.313,2.189,0.313,2.189,0.313,2.189s54.719,0.626,97.559-29.081c-4.691,9.696-36.793,70.217-120.176,98.117
	c0-22.914,0-136.575,0-136.575h-25.537v147.899h-27.516l-0.313-147.275l-38.563-0.313v143.523l-20.535-4.379
	c0,0-2.813-45.652-29.706-71.917c-3.438-4.064-30.019-24.39-46.275-44.403c-3.442,0.94-3.442,0.94-3.442,0.94
	s3.753,60.347,28.769,95.368c-5.942-3.44-73.793-44.402-97.557-119.444c20.011-0.314,137.268,0,137.268,0v-25.532H580.642v-26.266
	h145.712l0.312-37.318l-142.896,0.313l4.063-22.202c0,0,42.839-3.751,70.981-28.767c5.628-5.004,30.018-40.963,45.964-48.154
	c0.626-4.064,0.626-4.064,0.626-4.064s-45.338-2.189-98.184,30.645c5.315-10.945,50.656-82.236,122.884-99.434
	c0,10.786,0,138.105,0,138.105h23.765V978.064z"/>
<path opacity="0.6" fill="#40A629" stroke="#E5E5E5" stroke-miterlimit="10" d="M1231.984,978.064h27.726v146.339h37.937v-144.36
	l18.449,3.752c0,0,3.754,35.333,21.891,62.537c9.691,11.569,49.09,41.587,54.406,53.781c3.439,0,3.439,0,3.439,0
	s-0.627-58.158-28.455-96.618c9.691,6.879,71.605,37.32,98.182,120.908c-26.73,0-137.059,0-137.059,0v13.856v10.741h144.254v27.099
	H1328.5v37.942h144.254l-5.006,20.84c0,0-41.273,3.126-74.418,32.522c-5.941,6.562-17.824,25.326-42.525,45.022
	c0.313,2.189,0.313,2.189,0.313,2.189s54.719,0.626,97.559-29.081c-4.691,9.696-36.793,70.217-120.176,98.117
	c0-22.914,0-136.575,0-136.575h-25.537v147.899h-27.516l-0.313-147.275l-38.563-0.313v143.523l-20.535-4.379
	c0,0-2.813-45.652-29.706-71.917c-3.438-4.064-30.019-24.39-46.275-44.403c-3.442,0.94-3.442,0.94-3.442,0.94
	s3.753,60.347,28.769,95.368c-5.942-3.44-73.793-44.402-97.557-119.444c20.011-0.314,137.268,0,137.268,0v-25.532h-146.335v-26.266
	h145.712l0.312-37.318l-142.896,0.313l4.063-22.202c0,0,42.839-3.751,70.981-28.767c5.628-5.004,30.018-40.963,45.964-48.154
	c0.626-4.064,0.626-4.064,0.626-4.064s-45.338-2.189-98.184,30.645c5.315-10.945,50.656-82.236,122.884-99.434
	c0,10.786,0,138.105,0,138.105h23.765V978.064z"/>
<path opacity="0.6" fill="#40A629" stroke="#E5E5E5" stroke-miterlimit="10" d="M1724.227,978.064h27.726v146.339h37.937v-144.36
	l18.449,3.752c0,0,3.754,35.333,21.891,62.537c9.691,11.569,49.09,41.587,54.406,53.781c3.439,0,3.439,0,3.439,0
	s-0.627-58.158-28.455-96.618c9.691,6.879,71.605,37.32,98.182,120.908c-26.73,0-137.059,0-137.059,0v13.856v10.741h144.254v27.099
	h-144.254v37.942h144.254l-5.006,20.84c0,0-41.273,3.126-74.418,32.522c-5.941,6.562-17.824,25.326-42.525,45.022
	c0.313,2.189,0.313,2.189,0.313,2.189s54.719,0.626,97.559-29.081c-4.691,9.696-36.793,70.217-120.176,98.117
	c0-22.914,0-136.575,0-136.575h-25.537v147.899h-27.516l-0.313-147.275l-38.563-0.313v143.523l-20.535-4.379
	c0,0-2.813-45.652-29.706-71.917c-3.438-4.064-30.019-24.39-46.275-44.403c-3.442,0.94-3.442,0.94-3.442,0.94
	s3.754,60.347,28.77,95.368c-5.942-3.44-73.794-44.402-97.558-119.444c20.011-0.314,137.268,0,137.268,0v-25.532H1551v-26.266
	h145.711l0.313-37.318l-142.896,0.313l4.063-22.202c0,0,42.839-3.751,70.98-28.767c5.629-5.004,30.019-40.963,45.965-48.154
	c0.626-4.064,0.626-4.064,0.626-4.064s-45.339-2.189-98.184,30.645c5.315-10.945,50.655-82.236,122.884-99.434
	c0,10.786,0,138.105,0,138.105h23.766V978.064z"/>
<path opacity="0.6" fill="#40A629" stroke="#E5E5E5" stroke-miterlimit="10" d="M2213.369,971.5h27.726v146.339h37.937v-144.36
	l18.449,3.752c0,0,3.754,35.333,21.891,62.537c9.691,11.569,49.09,41.587,54.406,53.781c3.439,0,3.439,0,3.439,0
	s-0.627-58.158-28.455-96.618c9.691,6.879,71.605,37.32,98.182,120.908c-26.73,0-137.059,0-137.059,0v13.856v10.741h144.254v27.099
	h-144.254v37.942h144.254l-5.006,20.84c0,0-41.273,3.126-74.418,32.522c-5.941,6.562-17.824,25.326-42.525,45.022
	c0.313,2.189,0.313,2.189,0.313,2.189s54.719,0.626,97.559-29.081c-4.691,9.696-36.793,70.217-120.176,98.117
	c0-22.914,0-136.575,0-136.575h-25.537v147.899h-27.516l-0.313-147.275l-38.563-0.313v143.523l-20.535-4.379
	c0,0-2.813-45.652-29.706-71.917c-3.438-4.064-30.019-24.39-46.275-44.403c-3.442,0.94-3.442,0.94-3.442,0.94
	s3.754,60.347,28.77,95.368c-5.942-3.44-73.794-44.402-97.558-119.444c20.011-0.314,137.268,0,137.268,0v-25.532h-146.335v-26.266
	h145.711l0.313-37.318l-142.896,0.313l4.063-22.202c0,0,42.839-3.751,70.98-28.767c5.629-5.004,30.019-40.963,45.965-48.154
	c0.626-4.064,0.626-4.064,0.626-4.064s-45.339-2.189-98.184,30.645c5.315-10.945,50.655-82.236,122.884-99.434
	c0,10.786,0,138.105,0,138.105h23.766V971.5z"/>
</svg>
