<?xml version="1.0" encoding="utf-8"?>
<!-- Generator: Adobe Illustrator 16.0.3, SVG Export Plug-In . SVG Version: 6.00 Build 0)  -->
<!DOCTYPE svg PUBLIC "-//W3C//DTD SVG 1.1//EN" "http://www.w3.org/Graphics/SVG/1.1/DTD/svg11.dtd">
<svg version="1.1" id="Capa_1" xmlns="http://www.w3.org/2000/svg" xmlns:xlink="http://www.w3.org/1999/xlink" x="0px" y="0px"
	 width="541.89px" height="538.58px" viewBox="0 0 541.89 538.58" enable-background="new 0 0 541.89 538.58" xml:space="preserve">
<g>
	<path fill="#FFFFFF" stroke="#008837" stroke-miterlimit="10" d="M248.249,435.555c-5.913-0.02-11.513-0.938-16.174-4.662
		c-2.085-1.67-3.594-3.583-3.704-6.229c-0.249-6.132-1.674-7.724-8.143-9.03c-2.899-0.582-5.297-1.756-6.98-4.146
		c-0.778-1.106-1.994-1.833-3.552-2.198c-1.596-0.379-3.138-0.969-4.532-2.04c-1.578-1.218-4.052-0.938-5.656-0.409
		c-2.814,0.917-5.401,0.935-8.2,0.428c-3.271-0.587-6.561-1.132-9.868-1.505c-3.862-0.438-6.691-2.524-9.188-4.906
		c-3.324-3.169-7.383-2.535-11.382-2.365c-0.496,0.02-1.365,0.309-1.495,1.438c-0.441,3.852-2.865,5.548-7.271,5.769
		c-4.91,0.25-9.507-1.083-14.095-2.314c-1.337-0.355-2.701-0.534-3.796-0.258c-3.954,1.002-7.445-0.002-10.81-1.659
		c-2.516-1.239-3.101-3.812-4.285-5.937c-2.182-3.908-3.141-4.643-7.549-3.386c-4.035,1.146-7.666-0.225-10.379-1.914
		c-5.76-3.591-12.031-5.491-18.564-7.112c-6.053-1.5-10.271-5.447-14.113-9.647c-2.004-2.195-1.479-4.961-0.076-7.376
		c1.388-2.386,3.862-3.296,6.691-3.388c4.547-0.151,4.959-0.73,3.063-4.777c-0.73-1.563-1.805-2.999-2.424-4.595
		c-1.38-3.558,0.683-6.536,2.468-9.354c3.185-5.02,8.526-7.078,14.51-7.434c7.592-0.449,12.017-4.288,12.616-11.464
		c0.298-3.572,2.362-6.426,4.487-9.328c3.638-4.955,8.868-8.865,11.329-14.585c0.361-0.845,0.741-1.632,0.733-2.621
		c-0.02-1.896-1.157-2.319-2.695-1.74c-3.478,1.303-6.48,1.221-9.007-1.689c-2.552-2.932-3.926-6.034-2.478-9.825
		c0.55-1.44,1.954-2.2,2.804-3.409c3.413-4.851,2.449-9.906,0.895-14.923c-1.036-3.345-1.522-6.847-3.708-9.896
		c-1.106-1.546-2.694-2.754-3.201-4.833c-0.873-3.594,0.886-6.669,3.906-7.905c1.09-0.449,2.858,0.101,3.155-1.532
		c0.328-1.822-0.951-3.218-2.344-4.034c-2.961-1.735-4.706-4.048-5.375-7.161c-0.483-2.25-0.324-4.313,1.559-6.057
		c2.154-1.995,2.454-6.692,0.452-8.703c-0.402-0.403-1.245-1.37-2.028-0.744c-1.687,1.34-3.253,1.913-5.336,0.655
		c-1.642-0.994-2.874-2.213-4.062-3.655c-1.586-1.926-2.344-3.924-2.199-6.27c0.095-1.529-0.729-2.836-2.009-3.391
		c-4.957-2.14-4.444-7.34-2.129-10.6c1.177-1.66,2.055-2.948,1.416-5.162c-0.654-2.263,0.542-4.546,2.688-5.944
		c1.283-0.836,2.919-0.543,4.432,0.045c0.666,0.258,1.015,0.741,1.533,1.09c0.794,0.537,0.406,2.469,1.751,1.939
		c1.439-0.571,2.599-1.909,2.558-3.646c-0.046-2.043,0.446-3.944,1.706-5.645c0.258-0.349,0.53-0.828,0.904-0.941
		c3.274-0.984,3.108-2.254,0.977-4.476c-3.011-3.139-5.927-6.396-7.225-10.627c-0.377-1.234-0.392-2.402-0.284-3.52
		c0.186-1.921,2.04-2.351,3.553-1.789c5.504,2.046,10.382,5.106,15.066,8.44c2.345,1.667,2.327,4.179,2.993,6.479
		c0.294,1.023,0.492,2.756,1.786,2.6c1.331-0.159,2.162-1.409,2.254-3.071c0.226-4.025-3.199-5.65-5.765-7.671
		c-2.795-2.201-3.751-4.583-1.547-7.153c2.223-2.59,4.856-4.877,8.377-6.011c5.02-1.617,8.858-6.603,9.147-11.466
		c0.293-4.898,4.642-9.086,10.375-10.041c2.859-0.477,5.903,0.493,8.625-1.391c2.189-1.512,2.774-2.864,0.911-4.563
		c-2.313-2.108-2.387-4.625-1.127-6.979c2.038-3.805,3.418-7.431,2.42-11.888c-0.662-2.947,0.289-6.186,0.394-9.296
		c0.071-2.14,1.558-3.528,2.927-4.917c3.983-4.04,8.597-7.523,12.289-11.838c2.445-2.86,8.265-4.119,12.78-2.272
		c2.247,0.918,4.62,1.61,6.989,2.233c2.468,0.647,5.661-1.799,5.368-4.652c-0.677-6.539,4.686-8.363,10.709-8.837
		c3.092-0.242,6.048,0.249,9.094,1.317c3.511,1.231,7.094-0.458,10.466-1.636c4.126-1.441,7.035-4.204,9.858-7.297
		c4.366-4.79,9.32-8.819,16.635-9.865c3.302-0.473,6.669-2.03,7.847-5.87c0.771-2.528,2.39-4.869,3.843-7.181
		c1.301-2.068,3.497-3.279,6.018-3.513c1.808-0.167,3.157-0.875,4.257-1.967c3.885-3.865,8.671-4.046,13.658-2.772
		c2.705,0.691,5.584,0.403,8.136,2.3c4.374,3.254,6.679,9.162,1.166,13.388c-3.186,2.444-6.43,4.829-9.99,6.881
		c-2.769,1.599-5.748,2.769-8.751,3.414c-3.924,0.843-5.816,3.197-7.431,6.059c-0.68,1.208-1.045,2.574-1.473,3.892
		c-0.874,2.724-2.655,4.675-5.574,5.671c-4.953,1.694-8.247,5.116-11.383,8.841c-3.378,4.01-6.95,7.911-9.377,12.467
		c-1.764,3.308-2.967,6.759-0.956,10.625c3.679,7.076,0.736,13.38-3.338,19.441c-1.449,2.156-2.79,4.375-4.264,6.518
		c-0.462,0.671-0.526,1.385-0.159,1.908c0.587,0.836,1-0.387,1.642-0.314c0.961,0.108,1.717-0.438,2.399-0.97
		c7.013-5.449,13.152-0.123,14.565,5.385c1.213,4.732,3.289,8.466,8.276,11.017c6.383,3.267,8.426,11.141,5.434,17.436
		c-1.983,4.174-1.413,8.204,1.097,12.094c0.984,1.523,2.546,2.409,4.125,3.022c2.537,0.983,4.287,2.688,5.474,4.727
		c4.437,7.632,10.03,6.753,17.722,6.325c4.275-0.24,7.772-2.627,11.794-3.632c2.362-0.59,4.223,0.03,6.227,0.706
		c2.715,0.914,4.966,0.354,7.206-1.335c2.66-2.002,5.497-3.715,9.312-3.456c1.563,0.105,2.771,0.702,4.024,1.252
		c2.063,0.902,4.018,1.24,6.213,0.415c4.448-1.669,7.977,0.079,11.059,2.855c5.221,4.708,10.254,9.593,15.556,14.216
		c2.746,2.392,5.697,4.725,9.986,4.434c1.481-0.099,2.808-0.505,4.085-1.078c4.346-1.952,8.703-2.302,13.493-1.201
		c3.331,0.768,6.848-0.025,10.105-1.33c4.331-1.736,8.722-3.343,13.611-2.704c1.158,0.151,2.15-0.225,3.106-0.694
		c7.089-3.469,13.101-1.856,17.995,2.344c2.726,2.336,4.221,5.292,1.68,9.298c-3.092,4.866-4.207,10.826-9.346,14.599
		c-0.728,0.535-1.521,1.616-1.013,2.44c4.059,6.592,1.686,12.946-0.605,19.343c-2.698,7.533-0.65,13.522,5.846,18.674
		c3.438,2.722,6.756,5.669,9.612,8.899c2.813,3.186,3.762,10.332-0.766,14.026c-3.119,2.542-5.247,5.723-7.073,9.119
		c-0.668,1.247-0.933,2.019,1.156,2.078c7.573,0.222,11.737,4.705,15.175,10.256c1.604,2.585,3.726,4.908,5.691,7.3
		c3.567,4.328,6.012,9.24,8.447,14.121c1.791,3.589,2.954,7.44,2.912,11.487c-0.022,1.866-3.751,5.717-5.93,6.119
		c-2.689,0.496-4.039-0.491-5.718-3.643c-0.992-1.863-1.104-3.794-0.841-5.688c1.053-7.551-4.007-12.296-9.056-17.027
		c-1.695-1.592-3.33-1.186-4.488,0.762c-1.148,1.926-1.991,3.972-3.396,5.805c-3.638,4.735-8.354,5.48-13.136,1.785
		c-0.849-0.653-1.798-1.052-2.735-1.526c-0.679-0.349-1.057-0.589-1.633,0.037c-0.501,0.542-0.439,1.01-0.102,1.617
		c1.79,3.227,0.549,5.04-3.438,5.275c-6.301,0.372-12.609,0.706-18.896,1.139c-9.159,0.639-18.266,1.934-27.382,3.03
		c-2.883,0.349-3.069,1.05-2.465,3.961c0.612,2.953,0.938,5.969,1.214,8.969c0.271,2.912,0.858,3.17,3.958,2.653
		c5.04-0.834,10.185-1.805,14.931,1.165c2.788,1.749,5.386,7.22,4.486,9.592c-1.401,3.698-5.671,5.645-8.644,3.471
		c-2.219-1.628-3.779-0.835-4.955,0.403c-3.566,3.766-8.479,4.116-13.24,4.894c-1.635,0.271-2.724,1.022-2.742,2.478
		c-0.063,4.731-0.17,9.438,1.572,14.065c0.982,2.6,2.282,4.025,5.344,4.493c5.283,0.812,8.285,3.862,9.03,8.823
		c0.34,2.251,1.075,4.452,2.244,6.473c0.717,1.232,1.672,2.23,3.049,3.089c3.416,2.133,5.181,5.35,5.484,9.131
		c0.628,7.874-0.01,15.692-1.037,23.529c-0.671,5.098-1.314,10.218-1.919,15.327c-0.924,7.858-1.576,15.749-2.766,23.577
		c-1.084,7.122-2.378,14.193-2.343,21.435c0.011,2.159-0.259,4.408-0.521,6.594c-0.306,2.501-2.51,1.688-3.839,1.193
		c-3.501-1.305-6.635-3.272-9.494-5.532c-1.933-1.528-3.457-2.753-6.461-1.643c-2.546,0.94-5.357-0.364-7.561-1.87
		c-1.343-0.915-1.546-2.666-0.955-3.962c1.466-3.215,3.056-6.415,4.991-9.406c2.735-4.224,5.851-8.236,8.428-12.563
		c1.39-2.333,1.629-4.896,1.216-7.36c-0.377-2.241-2.859-2.955-4.87-3.426c-2.407-0.564-4.899-0.83-7.264-1.634
		c-1.529-0.522-2.954-1.109-4.156-2.192c-6.192-5.602-11.192-6.027-17.337-0.418c-4.438,4.051-10.043,3.751-14.925,0.588
		c-2.656-1.723-6.019-1.602-8.129,0.55c-4.477,4.558-9.777,6.189-16.311,4.638c-1.961-0.464-4.15-0.132-5.73,1.068
		c-2.967,2.264-6.625,2.636-10.069,2.991c-7.988,0.821-13.002-4.618-11.397-11.843c0.482-2.163-2.008-4.876-4.525-4.813
		c-3.289,0.084-6.327-0.149-8.868-2.558c-1.813-1.72-1.775-3.417-0.851-5.297c2.072-4.228-0.868-8.374-6.033-8.408
		C250.337,435.548,249.292,435.555,248.249,435.555z"/>
	<path fill="#FFFFFF" stroke="#008837" stroke-miterlimit="10" d="M248.17,432.408c-4.32,0.189-8.708-0.623-12.76-3.094
		c-2.458-1.5-3.643-3.361-3.621-5.991c0.008-1.039,0.222-2.134-0.073-3.098c-0.349-1.137-2.012-2.503-1.398-3.211
		c0.967-1.117,2.797-1.8,4.294-2.325c1.282-0.449,2.601-0.96,3.452-1.724c2.153-1.944,4.833-1.575,7.348-2.192
		c5.945-1.457,10.28,1.898,15.248,3.371c4.905,1.453,8.003,0.566,11.247-3.166c1.562-1.796,3.572-1.13,5.602-0.758
		c4.961,0.911,10.089,2.311,14.065-2.178c1.29-1.456,3.367-1.398,4.963-2.346c2.588-1.54,3.525-3.766,3.531-6.257
		c0.01-2.908,1.003-5.033,3.83-6.409c2.074-1.008,3.561-2.507,4.457-4.551c0.3-0.683,0.637-1.351,1.686-1.764
		c2.003-0.785,3.866-1.982,5.21-3.627c1.253-1.537,2.55-0.954,2.924,0.267c1.806,5.937,7.599,6.199,12.5,7.588
		c3.235,0.917,6.462,1.088,9.705-0.825c1.818-1.077,4.23-1.126,5.995,1.138c1.762,2.264,4.057,4.039,7.546,3.442
		c1.249-0.21,2.117-1.134,3.52-1.138c2.1-0.005,2.69,0.789,1.495,2.191c-2.126,2.495-1.802,4.894-0.297,7.412
		c0.621,1.041-0.207,1.822-0.719,2.474c-1.402,1.78-1.728,3.686-0.329,5.367c1.505,1.809,3.348,3.508,6.347,2.5
		c4.937-1.657,9.61-0.896,14.191,1.262c3.193,1.498,6.557,1.137,9.772,0.002c1.904-0.67,2.666,0.271,2.77,1.592
		c0.241,2.987,1.275,5.945,0.115,9.026c-0.502,1.325-0.086,2.942-0.079,4.429c0.028,6.177-1.483,12.193-2.189,18.29
		c-0.417,3.6-0.767,7.225-1.262,10.82c-0.829,6.002-1.05,12.059-2.216,18.035c-0.854,4.362-0.933,8.858-1.808,13.225
		c-0.896,4.479-0.02,9.018-1.021,13.48c-0.523,2.326-1.913,0.811-2.463,0.487c-2.82-1.643-5.607-3.375-8.194-5.306
		c-1.823-1.364-3.737-1.518-5.636-0.787c-1.046,0.401-1.938,0.464-2.899,0.263c-2.314-0.475-2.796-1.28-1.722-3.62
		c3.122-6.781,8.146-12.464,12.026-18.79c2.061-3.361,2.724-7.092,1.807-10.71c-0.912-3.596-4.699-4.541-8.124-5.551
		c-1.532-0.454-3.136-0.55-4.692-0.958c-2.422-0.632-4.462-1.316-5.878-3.479c-1.438-2.191-4.449-2.962-6.74-3.277
		c-4.396-0.609-9.016-0.614-12.47,3.146c-3.952,4.304-6.834,4.77-12.705,1.11c-3.371-2.102-8.536-1.547-11.41,1.27
		c-3.933,3.85-8.449,5.235-14.117,3.813c-2.829-0.711-5.463,0.523-8.002,1.783c-3.746,1.856-7.611,3.03-11.977,1.574
		c-3.567-1.189-5.735-3.103-4.378-7.428c1.238-3.94-2.473-8.5-6.903-8.568c-1.54-0.025-3.045,0.079-4.638-0.426
		c-2.931-0.92-3.59-1.316-2.182-3.738c1.523-2.632,1.509-5.063-0.328-7.193c-2.279-2.652-5.018-4.993-9.162-4.878
		C250.476,432.432,249.525,432.408,248.17,432.408z"/>
	<path fill="#FFFFFF" stroke="#008837" stroke-miterlimit="10" d="M327.646,305.361c-1.131-3.11-0.548-6.469-0.752-9.778
		c-0.517-8.442-0.909-16.892-1.77-25.305c-0.559-5.466-0.948-10.957-1.73-16.391c-0.434-3.022-0.169-6.167-1.548-9.095
		c-0.538-1.141,0.198-2.201,0.828-3.422c2.787-5.403,8.407-8.879,10.949-14.459c1.764-3.872,5.839-5.377,10.142-5.653
		c2.356-0.15,4.199-0.951,5.875-2.182c4.037-2.971,7.705-6.233,8.604-11.262c0.231-1.284,0.878-1.81,2.507-1.915
		c4.294-0.275,8.921,0.26,12.118-3.556c0.499-0.596,2.143-0.603,3.224-0.521c2.925,0.226,5.595-0.72,8.06-1.771
		c3.318-1.417,6.609-1.71,9.965-0.864c4.858,1.227,9.32,0.024,13.639-1.648c3.313-1.283,6.56-2.389,10.209-2.055
		c2.162,0.199,4.027-0.531,5.946-1.386c4.414-1.967,9.673-1.406,13.174,1.868c2.4,2.251,2.822,4.606,0.912,7.432
		c-1.742,2.576-3.664,5.035-4.521,8.021c-0.224,0.77-0.572,1.366-1.335,1.916c-4.176,3.024-5.166,5.5-3.191,10.144
		c1.924,4.512,0.792,8.632-0.856,12.778c-2.659,6.669-2.64,13.199,0.737,19.655c0.69,1.324-0.429,2.953-2.213,2.96
		c-3.322,0.014-6.584-0.106-9.432,1.978c-0.591,0.431-1.837,0.273-2.734,0.13c-2.376-0.381-4.472,0.669-5.558,2.097
		c-2.057,2.695-4.73,4.084-8.011,4.49c-4.356,0.544-7.614,2.802-10.755,5.284c-1.818,1.438-3.673,1.581-5.855,0.922
		c-0.938-0.282-2.264-0.54-3.003-0.147c-3.798,1.997-8.301,1.401-12.13,2.903c-3.016,1.184-6.156,1.558-9.243,2.284
		c-2.092,0.495-3.542,1.407-4.097,3.499c-0.479,1.814-2.112,2.455-4.025,2.269c-5.273-0.507-9.011,2.015-12.541,5.141
		c-1.636,1.448-1.831,3.235-1.47,4.943c1.057,5.039-1.47,8.85-6.8,9.858C329.831,304.737,328.723,305.085,327.646,305.361z"/>
	<path fill="#FFFFFF" stroke="#008837" stroke-miterlimit="10" d="M283.557,408.28c-2.43,0.034-4.373,0.015-6.325-0.791
		c-2.112-0.864-6.181,0.306-7.515,1.818c-2.477,2.808-6.365,3.572-9.863,1.99c-2.767-1.249-5.498-2.505-8.526-3.29
		c-1.498-0.387-2.472,0.181-3.631,0.338c-3.923,0.526-7.074-0.851-10.159-2.851c-3.624-2.345-7.502-3.672-12.135-2.502
		c-2.395,0.604-6.41-1.551-7.302-3.872c-1.375-3.579-4.465-5.615-8.536-5.464c-2.505,0.098-3.889-0.672-4.58-2.957
		c-0.974-3.218-3.51-4.549-6.725-3.305c-1.802,0.7-1.998-0.211-2.358-1.137c-2.145-5.489-2.869-5.794-9.321-6.349
		c-3.121-0.269-6.129-0.546-9.237,0.036c-1.549,0.292-2.744-0.355-3.81-1.731c-1.296-1.68-2.942-3.143-5.195-4.073
		c-2.418-1.004-4.56-2.596-6.758-4.014c-1.279-0.823-2.117-1.783-1.017-3.398c1.276-1.875,1.689-4.189,5.142-4.13
		c2.068,0.036,4.386-1.2,5.364-3.085c2.348-4.532,6.604-7.819,9.036-12.298c0.927-1.704,1.958-3.298,2.152-5.222
		c0.414-4.102,4.149-6.482,5.935-9.825c1.949-3.646,6.272-4.254,8.89-6.919c0.83-0.849,1.613,0.267,2.302,0.594
		c5.904,2.809,10.779,6.954,16.123,10.497c4.131,2.736,8.586,5.095,14.052,4.911c1.386-0.043,2.946,0.434,3.922,1.33
		c3.846,3.521,8.78,3.887,13.732,4.41c3.46,0.368,6.5,1.776,9.063,3.923c3.603,3.022,6.231,6.954,10.594,9.288
		c1.189,0.634,2.74,1.504,3.625,1.374c4.4-0.648,7.91,1.473,11.643,2.751c2.484,0.852,4.691,0.994,7.327,0.543
		c4.791-0.817,8.728,1.547,11.719,4.583c2.897,2.942,6.596,4.854,10.471,3.681c1.782-0.54,2.598-0.87,2.212,1.294
		c-0.061,0.334,0.428,0.715,0.518,1.104c0.939,4.113-0.062,5.902-4.25,8.145c-2.143,1.149-4.008,2.586-4.886,4.896
		c-0.601,1.584-2.347,2.192-3.753,2.961c-3.073,1.681-4.06,4.316-4.171,7.313c-0.133,3.434-1.006,4.708-4.727,5.755
		c-0.98,0.276-1.969,0.477-2.57,1.24C288.285,408.038,286.011,408.838,283.557,408.28z"/>
	<path fill="#FFFFFF" stroke="#008837" stroke-miterlimit="10" d="M319.49,245.327c0.838,5.192,1.113,10.252,1.796,15.256
		c0.955,7.043,0.948,14.148,2.148,21.17c0.549,3.193,0.294,6.496,0.46,9.736c0.244,4.813,0.838,9.621,0.75,14.451
		c-0.021,1.223,0.275,2.172-1.901,1.428c-2.734-0.935-5.697-1.486-8.605-1.745c-2.595-0.232-5.332,0.081-7.762,0.994
		c-5.137,1.932-10.102,3.299-15.823,1.667c-3.308-0.941-7.109-0.138-9.654,2.287c-2.371,2.258-5.27,3.056-8.272,3.9
		c-1.862,0.522-3.646,1.167-5.353,2.056c-1.103,0.573-2.585,1.384-2.406,2.249c0.872,4.215-2.873,3.523-5.041,3.996
		c-3.46,0.757-6.542,2.919-10.454,2.239c-1.109-0.188-1.097,1.34-1.068,2.304c0.157,5.631,1.458,11.201,1.166,16.859
		c-0.008,0.166-0.063,0.327-0.099,0.495c-2.825-0.818-5.778-0.202-8.729-1.127c-3.074-0.964-5.179-3.163-8.15-4.133
		c-1.683-0.551-3.304-0.735-5.034-0.855c-4.245-0.291-7.559-2.64-11.09-4.485c-0.318-0.168-0.549-0.479-0.819-0.723
		c-4.404-4.025-9.707-6.859-15.017-9.698c-0.638-0.338-1.117-0.922-1.253-1.869c-0.811-5.664,1.58-10.126,6.403-13.25
		c2.752-1.78,3.63-3.958,3.891-6.683c0.434-4.536,1.873-9.074,3.971-12.894c2.635-4.809,7.391-8.394,13.48-10.202
		c5.468-1.621,8.932-4.957,8.118-9.281c-0.386-2.049-1.568-3.956-2.124-5.991c-0.113-0.417-1.211-1.045-0.117-1.673
		c0.711-0.407,1.455-0.461,2.086-0.134c1.589,0.818,3.125,1.543,3.135,3.734c0.021,3.684,1.287,5.246,4.078,5.936
		c2.78,0.687,8.664-1.65,10.096-4.078c1.004-1.707,1.9-3.471,2.842-5.212c0.465-0.855,0.787-1.186,2.067-0.621
		c2.863,1.266,5.803,1.922,8.011,4.593c1.714,2.067,5.232,1.565,8.054,1.059c2.019-0.363,3.87-1.08,5.562-2.298
		c1.424-1.014,3.42-0.946,5.158-1.1c4.275-0.374,7.975-1.177,10.237-5.182c0.969-1.718,2.778-3.237,5.557-3.335
		c2.31-0.078,4.2-1.612,6.122-2.832c2.621-1.659,5.494-2.867,8.479-3.94C316.187,247.742,317.71,246.426,319.49,245.327z"/>
	<path fill="#FFFFFF" stroke="#008837" stroke-miterlimit="10" d="M337.736,328.704c2.441-1.453,5.554-1.5,7.396-3.938
		c1.506-1.993,1.581-4.438-0.061-5.955c-0.804-0.744-1.651-0.6-2.565-0.688c-2.014-0.189-4.058,0.428-6.06-0.409
		c-3.595-1.504-4.222-3.209-2.933-6.517c1.345-3.453,2.946-6.639,5.662-9.417c1.937-1.972,2.626-4.385,1.459-7.165
		c-0.816-1.943,1.815-4.884,4.899-6.456c1.812-0.923,3.641-0.874,5.548-0.96c3.253-0.145,6.215-0.506,7.222-4.263
		c0.602-2.225,3.446-2.209,5.332-2.353c3.569-0.271,6.518-2.232,10.003-2.564c2.669-0.258,5.313-0.453,7.792-1.732
		c0.933-0.479,2.436,0.053,3.724,0.389c3.397,0.891,6.144-1.027,8.284-2.908c2.688-2.357,5.696-3.274,9.15-3.881
		c2.902-0.509,5.327-2.038,7.25-4.188c1.211-1.358,2.731-1.959,4.751-2.182c1.953-0.213,4.157-0.064,5.895-1.469
		c1.216-0.983,2.854-0.493,4.296-0.484c1.482,0.007,3.474,0.225,4.182-0.662c2.298-2.887,4.149-1.253,5.897,0.214
		c2.801,2.354,6.003,4.562,7.955,7.45c3.156,4.673,3.396,7.621-1.443,12.05c-2.828,2.589-4.881,5.604-6.557,8.816
		c-2.048,3.944-0.877,6.231,3.564,6.032c5.876-0.264,9.193,3.17,11.749,6.655c2.865,3.914,6.316,7.479,8.812,11.57
		c4.007,6.574,8.422,13.062,9.266,20.863c0.18,1.689-2.273,4.498-3.82,3.943c-1.398-0.508-1.812-1.99-1.931-3.436
		c-0.226-2.732,0.111-5.441-0.355-8.218c-0.725-4.348-3.606-7.319-6.387-10.46c-0.987-1.119-1.854-2.4-3.063-3.269
		c-4.569-3.284-9.177-1.89-11.269,3.341c-0.721,1.8-1.766,3.359-3.071,4.866c-1.622,1.88-3.726,2.119-6.302,0.525
		c-2.063-1.279-3.985-2.634-6.786-2.747c-3.606-0.145-5.249,2.247-4.052,5.213c0.677,1.676,0.056,1.59-1.351,1.726
		c-5.813,0.57-11.668,0.632-17.47,1.122c-7.129,0.599-14.295,1.125-21.371,2.438c-3.598,0.666-7.334,0.602-10.759,2.143
		c-0.548,0.247-1.532-0.277-2.297-0.498c-3.171-0.915-6.336,0.394-9.507,0.011c-0.71-0.09-1.445,0.2-2.095-0.438
		c-3.729-3.674-8.469-2.065-12.856-1.874C341.553,329.025,339.696,329.15,337.736,328.704z"/>
	<path fill="#FFFFFF" stroke="#008837" stroke-miterlimit="10" d="M122.384,206.837c-0.171-2.24,1.021-4.151,1.738-6.177
		c0.667-1.886,2.004-1.78,3.508-1.009c0.563,0.287,0.93,0.911,1.5,1.176c0.958,0.448,1.718,1.486,3.156,0.631
		c1.133-0.674,1.447-1.479,1.549-2.595c0.349-3.796-1.557-6.734-4.076-9.483c-2.347-2.555-5.4-4.232-8.443-5.941
		c-3.173-1.782-4.762-4.701-2.435-8.146c0.449-0.663,0.792-0.902,1.398-0.746c2.937,0.753,5.451-0.255,6.555-2.516
		c1.397-2.865,1.244-5.957-0.935-8.792c-1.578-2.051-3.691-3.525-5.695-5.1c-1.63-1.281-1.079-2.264,0.014-3.314
		c1.577-1.513,3.229-2.837,5.49-3.63c1.942-0.681,4.094-1.322,5.54-2.892c1.075-1.165,1.951-0.101,2.529,0.322
		c2.786,2.043,4.777,8.339,3.783,11.2c-1.034,2.98-2.524,5.697-4.413,8.315c-3.033,4.205-3.5,9.131-2.574,13.839
		c0.824,4.187,5.167,5.251,9.197,6.209c5.463,1.298,10.542-0.444,15.745-1.384c4.311-0.779,6.648-3.709,8.422-6.885
		c1.877-3.362,4.413-6.441,5.31-10.3c0.351-1.517,1.722-2.851,2.705-4.222c1.254-1.752,3.172-1.641,4.996-1.175
		c4.292,1.099,4.66,0.966,6.435-2.914c0.231-0.51,0.623-1.065,1.492-0.894c1.83,0.361,3.695,0.592,5.505,1.023
		c4.193,0.997,6.998,6.481,5.802,10.542c-0.759,2.581-3.097,4.924-1.491,7.999c0.476,0.915,1.113,1.752,1.718,2.471
		c1.408,1.674,3.092,1.167,5.042-1.269c0.47-0.582,0.436-1.951,1.817-1.143c0.99,0.579,1.514,1.318,0.639,2.511
		c-0.619,0.84-0.705,1.992-1.179,2.941c-1.168,2.332-0.778,4.396,1.54,5.764c3.198,1.887,6.818,1.394,8.274-0.314
		c1.081-1.27,2.436-2.387,3.275-3.773c0.509-0.846,1.334-0.642,1.875-1.099c0.342,0.553,0.806,1.072,1.007,1.668
		c0.946,2.792,0.423,4.834-2.461,6.808c-3.069,2.095-5.657,4.761-9.02,6.629c-2.378,1.32-3.487,3.672-3.311,6.291
		c0.182,2.732-0.552,5.021-2.987,6.747c-1.756,1.246-2.228,2.993-2.174,4.943c0.039,1.397,0.007,2.796,0.007,4.193
		c0,4.999-1.498,7.204-6.644,8.773c-3.695,1.127-7.515,1.997-11.346,2.629c-2.919,0.482-5.919-0.322-8.849-0.559
		c-4.551-0.366-6.717,1.33-5.62,5.486c0.061,0.23,0.441,0.385,0.507,0.617c0.981,3.421,0.921,3.525-2.832,3.401
		c-1.864-0.064-3.564,0.748-5.471,0.593c-1.363-0.113-2.352-0.746-2.425-1.704c-0.257-3.424-3.18-6.066-3.098-9.626
		c0.021-0.873-0.888-2.087-1.825-2.962c-1.501-1.403-3.109-2.716-4.318-4.397c-1.566-2.179-4.866-2.393-8.837-1.125
		c-1.157,0.37-2.273,0.901-3.333,1.474c-3.194,1.721-4.818,1.521-5.926-1.564c-1.823-5.087-3.685-10.137-6.162-14.995
		C122.21,208.667,122.434,207.694,122.384,206.837z"/>
	<path fill="#FFFFFF" stroke="#008837" stroke-miterlimit="10" d="M332.657,306.3c-0.597,2.677-2,4.492-2.387,6.71
		c-0.883,5.075,5.873,8.828,10.642,7.564c1.061-0.279,1.83-0.506,2.348,0.374c0.453,0.771,0.24,1.552-0.494,2.317
		c-1.145,1.195-2.536,2.155-4.154,2.126c-1.36-0.02-2.563,0.834-2.803,1.278c-2.721,5.083-9.062,6.689-12.393,11.146
		c-0.821,1.101-1.922,2.034-2.836,3.107c-1.105,1.306-1.305,2.183,0.205,3.346c1.605,1.239,2.536,2.932,2.112,4.931
		c-0.387,1.84,1.008,2.692,2.165,3.634c1.947,1.579,1.605,2.304-0.757,3.186c-3.994,1.493-7.614,3.528-12.343,3.131
		c-3.931-0.329-5.771,3.121-7.792,5.601c-1.268,1.547-1.789,1.836-3.837,0.715c-2.98-1.626-5.98-4.169-9.872-3.238
		c-4.284,1.025-7.874-0.084-11.552-1.915c-1.586-0.787-3.604-1.287-5.39-1.208c-5.757,0.248-8.874-3.421-12.035-6.747
		c-2.203-2.319-4.271-4.696-7.374-5.875c-1.452-0.556-1.919-1.146-1.833-2.484c0.311-4.79-0.889-9.483-1.13-14.238
		c-0.071-1.393,0.027-2.005,2.064-2.304c3.162-0.467,6.022-2.239,9.284-2.801c0.627-0.108,1.256-0.171,1.88-0.215
		c1.646-0.117,3.117-0.949,3.093-2.311c-0.073-4.653,3.811-4.715,7.072-5.554c2.78-0.715,5.523-1.515,7.512-3.566
		c2.41-2.48,5.592-2.657,8.658-2.093c5.019,0.921,10.089,0.855,14.51-1.083c5.357-2.348,10.267-1.473,15.492-0.347
		c2.671,0.574,5.494,0.925,7.712-1.36C329.427,307.1,331.039,307.215,332.657,306.3z"/>
	<path fill="#FFFFFF" stroke="#008837" stroke-miterlimit="10" d="M363.937,374.952c-0.451,3.83,0.813,7.928,1.84,11.973
		c0.623,2.459,2.74,4.513,5.724,5.097c1.478,0.287,2.804,0.914,4.347,1.123c2.719,0.372,3.657,2.706,3.995,4.791
		c0.868,5.37,2.484,10.229,7.956,13.207c0.898,0.483,0.472,1.069-0.194,1.225c-3.111,0.709-6.297,1.26-9.337-0.102
		c-4.734-2.121-9.436-3.113-14.547-0.97c-1.67,0.695-2.758-0.856-3.91-1.798c-1.161-0.951-0.233-1.967,0.232-2.445
		c1.839-1.904,1.36-3.781,0.524-5.832c-0.527-1.296-0.613-2.519,0.569-3.802c1.56-1.689,1.458-3.751-0.119-5.396
		c-1.306-1.366-2.988-1.272-4.88-0.535c-2.848,1.113-5.344,0.752-7.599-1.701c-2.784-3.037-5.977-3.337-9.84-1.529
		c-2.282,1.067-4.775,0.982-7.004,0.405c-1.909-0.497-3.882-1.123-5.78-1.731c-2.596-0.832-4.406-1.855-5.057-4.354
		c-0.1-0.384-0.283-0.888-0.604-1.064c-3.529-1.955-3.097-5.347-3.554-8.36c-0.343-2.246-2.22-3.576-4.554-2.889
		c-0.59,0.173-1.167,0.37-1.75,0.553c-2.142,0.684-4.081-0.166-5.354-1.413c-1.436-1.403,1.077-2.14,1.501-3.331
		c0.281-0.802,1.23-1.398,1.805-2.177c1.192-1.613,2.893-2.531,5.222-2.271c5.654,0.645,9.868-2.5,14.326-4.872
		c2.112-1.122,1.846-3.353,0.439-4.329c-2.571-1.781-3.092-4.007-3.114-6.594c-0.002-0.494-0.108-0.884-0.505-1.122
		c-3.102-1.851-1.343-3.229,0.418-4.783c3.159-2.787,6.032-5.836,9.792-8.025c0.89-0.519,1.672-0.806,2.566-0.632
		c4.197,0.823,8.287-0.038,12.409-0.525c1.287-0.153,2.676,0.231,3.469,1.078c2.738,2.917,6.145,2.251,9.501,1.678
		c1.226-0.211,2.429-0.173,3.615-0.119c1.188,0.055,1.902,0.594,2.075,2.012c0.541,4.46,1.207,8.923,2.194,13.316
		c0.638,2.846,3.631,3.891,6.716,3.416c4.379-0.67,8.85-2.045,13.151,0.574c2.86,1.736,4.033,6.036,1.826,7.572
		c-0.713,0.494-1.3,0.754-2.434,0.092c-3.954-2.305-5.4-1.971-8.2,0.49c-3.188,2.8-6.868,3.882-10.89,4.43
		c-5.189,0.71-6.993,2.412-6.99,7.142C363.937,373.121,363.937,373.816,363.937,374.952z"/>
	<path fill="#FFFFFF" stroke="#008837" stroke-miterlimit="10" d="M113.183,283.713c3.762-4.726,3.617-9.952,2.262-15.034
		c-1.024-3.835-1.656-7.837-3.781-11.434c-0.993-1.682-2.187-3.195-3.306-4.778c-1.635-2.31-0.733-4.508,2.13-5.363
		c5.235-1.565,6.216-5.55,2.352-9.353c-1.715-1.69-3.841-3.032-5.048-5.154c-1.25-2.202-1.005-4.096,0.929-5.915
		c4.167-3.917,2.203-11.597-3.393-13.665c-0.744-0.277-1.392-0.315-2.101-0.085c-3.892,1.266-5.511,0.415-7.058-3.252
		c-0.578-1.371-0.188-2.716-0.54-3.988c-0.545-1.974-1.404-3.796-3.58-4.945c-2.378-1.257-2.715-3.107-1.511-5.458
		c0.718-1.401,1.985-2.466,2.382-4.121c0.286-1.192,0.657-2.103,0.006-3.328c-0.38-0.715-0.149-1.705,0.352-2.661
		c0.449-0.849,0.932-0.61,1.493-0.688c0.831-0.119,0.682,0.433,0.897,0.921c1.41,3.212,5.424,3.83,7.693,1.052
		c1.42-1.74,2.919-3.593,2.588-6.107c-0.229-1.724,0.673-2.943,2.469-3.766c2.86-1.309,3.638-4.313,1.767-6.729
		c-1.484-1.919-3.159-3.72-4.82-5.52c-1.71-1.851-2.395-4.146-3.604-6.49c5.236,1.267,9.367,4.054,13.068,7.045
		c2.427,1.96,3.319,5.545,1.83,8.436c-4.149,8.062,0.237,10.702,6.155,13.896c4.66,2.512,8.02,5.888,8.287,11.251
		c-0.318-0.042-0.496-0.024-0.63-0.088c-5.993-2.871-8.981-0.999-10.458,5.4c-1.038,4.498,0.761,8.115,2.511,11.804
		c1.393,2.937,2.245,5.985,3.323,8.991c1.347,3.768,5.02,6.595,9.732,3.957c1.204-0.673,2.51-1.217,3.821-1.7
		c2.199-0.812,4.183-0.847,6.01,1.003c2.647,2.681,5.927,4.933,5.542,9.192c-0.063,0.701,0.523,1.614,1.1,2.178
		c2.225,2.175,0.465,3.399-1.142,4.763c-1.33,1.129-2.723,2.245-3.794,3.566c-2.134,2.627-0.838,7.174,2.479,9.278
		c3.347,2.128,3.405,2.51,0.733,4.98c-4.56,4.218-7.076,9.206-6.829,15.25c0.042,1.046-0.075,2.102,0.018,3.146
		c0.487,5.462-3.283,6.462-7.688,6.989c-6.783,0.811-13.221-0.811-19.523-2.842C115.3,284.023,114.253,284.505,113.183,283.713z"/>
	<path fill="#FFFFFF" stroke="#008837" stroke-miterlimit="10" d="M272.663,207.841c2.911,2.222,5.635,3.794,9.146,4.195
		c1.683,0.192,3.065-0.109,4.238-0.801c4.052-2.386,8.576-3.222,13.204-3.649c2.581-0.238,4.687-1.456,6.982-2.27
		c4.265-1.513,8.455-1.95,13.163-1.617c5.697,0.4,11.453,1.115,17.45-0.386c3.69-0.921,7.944-3.504,12.372-1.052
		c2.156,1.195,4.192,2.53,6.315,3.752c1.092,0.628-0.047,0.938-0.163,1.4c-1.661,6.508-7.285,10.928-14.176,11.732
		c-4.729,0.55-8.258,3.154-10.364,7.114c-1.677,3.145-3.896,5.821-6.644,8.246c-2.414,2.129-3.448,5.2-5.706,7.58
		c-2.061,2.173-4.319,3.701-7.075,4.767c-2.703,1.047-5.497,1.936-7.691,3.81c-2.204,1.891-5.284,1.785-7.761,3.021
		c-1.705,0.854-3.275,1.89-4.037,3.635c-1.043,2.384-3.336,3.431-5.729,3.629c-4.198,0.345-8.183,0.925-11.72,3.236
		c-1.529,0.996-3.448,0.249-5.153,0.523c-2.127,0.343-2.789-1.029-3.852-2.241c-1.502-1.719-4.019-2.009-6.057-2.985
		c-1.875-0.897-3.786-5.245-3.902-7.079c-0.211-3.38,2.862-5.276,3.646-8.114c0.507-1.834,0.938-3.717,1.063-5.599
		c0.104-1.571,0.895-2,2.317-1.771c2.422,0.386,4.143-0.552,5.563-2.231c1.399-1.653,3.338-2.457,5.475-3.055
		c3.333-0.93,5.368-3.037,6.062-6.198c0.513-2.343-1.067-3.703-2.984-4.555c-2.298-1.021-3.237-2.057-2.196-4.557
		c0.827-2-0.425-4.097-1.309-5.998C272.816,209.624,272.913,209.003,272.663,207.841z"/>
	<path fill="#FFFFFF" stroke="#008837" stroke-miterlimit="10" d="M76.347,365.84c0.517,0,0.705,0,0.894,0
		c4.658-0.002,6.221-1.542,5.292-5.614c-0.446-1.962-1.056-4.104-2.327-5.651c-2.776-3.383-1.038-6.327,0.862-8.934
		c2.637-3.611,6.607-5.689,11.473-6.004c0.547-0.039,1.073-0.225,1.567-0.305c2.056-0.347,3.759-0.646,5.324,1.745
		c3.974,6.071,10.26,8.531,17.931,7.986c1.307-0.094,2.265-0.892,3.39-1.348c1.438-0.582,2.161-0.073,2.215,1.235
		c0.049,1.198,0.079,2.314,0.932,3.341c1.101,1.323,0.984,2.688-0.007,4.104c-1.168,1.668-2.022,3.56-1.977,5.521
		c0.063,2.8,3.652,4.305,7.313,3.127c2.321-0.746,4.551-1.563,7.119-1.336c2.406,0.215,3.567,1.281,3.752,3.451
		c0.092,1.072-0.394,2.186,0.491,3.224c0.432,0.508,0.001,1.175-0.59,1.56c-1.475,0.958-2.849,2.123-4.466,2.796
		c-4.84,2.002-5.705,3.949-3.452,8.61c0.644,1.331,1.405,2.623,1.992,3.975c0.905,2.09,2.186,4.104-0.69,6.04
		c-1.508,1.015-1.33,3.007-1.282,4.713c0.047,1.634,0.147,2.464-2.607,2.06c-3.923-0.572-5.705-2.27-6.864-5.462
		c-0.987-2.719-3.247-4.555-6.069-5.867c-1.105-0.516-2.333-0.713-3.178-0.385c-5.17,2.033-9.315-0.044-13.363-2.573
		c-4.563-2.852-9.773-4.119-15.01-5.319c-3.104-0.713-5.953-1.762-8.218-3.966c-0.878-0.855-1.824-1.657-2.874-2.394
		c-1.748-1.222-3.873-2.436-3.132-5.106C71.605,366.127,73.875,365.619,76.347,365.84z"/>
	<path fill="#FFFFFF" stroke="#008837" stroke-miterlimit="10" d="M219.902,158.278c3.067,1.986,4.125,4.33,2.873,7.732
		c-0.683,1.854,0.673,3.589,2.917,3.718c1.645,0.097,2.415,0.994,3.134,1.89c2.997,3.734,7.305,4.572,11.545,2.092
		c5.094-2.983,11.484-0.266,12.49,5.311c1.357,7.519,9.199,10.719,16.167,6.506c1.317-0.795,1.956-0.62,2.668,0.469
		c2.182,3.336,1.098,7.739-2.507,10.004c-1.031,0.65-1.546,1.612-2.089,2.583c-0.961,1.724-2.049,2.35-3.752,0.581
		c-0.814-0.848-1.589-2.079-3.368-1.128c-1.54,0.823-2.529,1.649-2.627,3.474c-0.115,2.056,0.329,4.056,0.225,6.134
		c-0.195,3.799-2.824,5.566-5.671,7.266c-2.62,1.567-5.163,3.053-6.478,5.858c-0.382,0.808-1.335,1.477-2.186,1.987
		c-0.721,0.433-1.754,0.939-2.546,0.454c-0.965-0.589,0.028-1.28,0.219-1.969c0.767-2.792-0.67-5.96-3.393-7.606
		c-2.176-1.313-5.396-0.236-5.701,3.316c-0.128,1.476-0.185,2.985-0.004,4.449c0.525,4.175-3.461,5.721-7.383,4.767
		c-2.476-0.604-4.829-1.552-7.426-1.857c-1.449-0.169-2.701-1.247-3.422-2.441c-1.072-1.784-2.487-2.745-4.752-2.818
		c-2.92-0.094-3.254-2.809-4.787-4.314c-0.053-0.052,0.28-0.508,0.501-0.714c1.777-1.681,2.416-3.759,2.143-5.995
		c-0.318-2.591,1.046-4.476,3.161-5.568c3.733-1.927,6.43-4.952,9.778-7.278c3.351-2.329,2.321-6.217,1.128-9.376
		c-0.694-1.841-0.808-3.325-0.444-5.225c1.165-6.081,1.997-12.208-0.792-18.203C218.933,161.103,218.9,159.604,219.902,158.278z"/>
	<path fill="#FFFFFF" stroke="#008837" stroke-miterlimit="10" d="M159.882,362.691c-3.426,4.14-2.797,7.042,0.385,10.065
		c3.048,2.895,4.394,3.18-1.623,5.128c-3.691,1.193-6.594-0.755-6.597-4.307c0-0.872,0.027-1.749-0.004-2.616
		c-0.125-3.394-3.968-5.305-7.069-3.49c-0.698,0.407-1.271,0.991-1.993,1.57c0.114-7.648-6.461-9.264-12.536-7.146
		c-1.777,0.617-3.968,2.047-5.317,0.645c-1.469-1.532,0.146-3.585,1.165-5.189c0.997-1.566,1.679-2.989,0.736-4.843
		c-0.709-1.394-1.218-2.835-1.239-4.527c-0.02-1.721-3.312-3.734-6.642-2.449c-6.199,2.398-14.276-0.34-17.437-5.832
		c-0.512-0.887-0.966-1.293,0.439-2.348c3.865-2.911,6.246-6.867,6.574-11.58c0.225-3.223,1.958-5.816,3.961-8.182
		c0.823-0.975,2.541,0.053,3.825,0.517c2.549,0.932,4.659,2.576,7.375,3.325c2.747,0.758,4.943-0.018,7.15-1.06
		c1.198-0.566,2.303-1.451,3.185-2.396c1.194-1.285,2.349-0.953,3.671-0.37c5.81,2.558,8.232,1.551,10.174-4.065
		c0.79-2.283,3.412-1.995,5.05-2.046c2.109-0.061,4.721,0.173,5.874,2.686c0.377,0.826,1.283,1.574,2.146,2.057
		c5.991,3.344,6.192,9.469,8.409,14.62c0.446,1.036-0.458,1.175-1.288,1.46c-4.212,1.439-8.467,2.582-13.036,2.069
		c-1.595-0.177-2.441,0.411-3.244,1.751c-0.899,1.504-1.503,2.772-0.402,4.337c0.34,0.482,0.746,0.982,1.098,1.397
		c1.573,1.854,1.051,2.894-1.12,3.752c-2.128,0.84-3.459,2.602-4.968,4.097c-1.212,1.195-0.44,3.539,1.484,4.276
		c2.512,0.956,3.591,2.272,3.553,4.952c-0.028,2.18,2.16,3.35,4.472,3.71C157.163,362.828,158.285,362.691,159.882,362.691z"/>
	<path fill="#FFFFFF" stroke="#008837" stroke-miterlimit="10" d="M133.849,145.426c2.671-2.365,4.011-5.216,3.985-8.671
		c-0.024-3.289,3.249-6.916,7.157-7.205c3.599-0.267,7.506-1.812,10.907,0.895c0.27,0.213,0.91,0.101,1.36,0.04
		c4.516-0.612,8.219,1.446,11.978,3.174c2.311,1.063,2.302,3.204,0.135,4.787c-1.784,1.306-2.694,2.866-2.553,5.067
		c0.207,3.258-0.371,6.618,1.716,9.571c2.099,2.972,5.229,3.48,8.068,1.125c1.173-0.975,2.298-0.968,3.533-0.651
		c1.534,0.395,4.526,2.559,5.547,3.836c-2.037,0.912-4.834,1.023-4.954,4.005c-0.012,0.287-0.629,1.442-1.92,0.853
		c-6.271-2.863-9.774,1.315-11.853,6.28c-1.969,4.701-4.51,9.037-7.609,13.116c-2.372,3.125-6.47,2.891-9.928,3.891
		c-4.213,1.214-8.357,0.439-12.346-0.65c-2.143-0.585-3.795-2.005-3.905-4.674c-0.207-5.152,1.387-9.465,4.404-13.883
		C141.717,160.267,142.591,152.205,133.849,145.426z"/>
	<path fill="#FFFFFF" stroke="#008837" stroke-miterlimit="10" d="M180.743,109.122c1.003,6.875,3.777,12.625,9.562,17.061
		c1.68,1.291,3.76,1.308,5.556,1.562c2.998,0.422,5.151,1.885,7.313,3.459c1.72,1.254,3.553,1.823,5.714,1.931
		c5.933,0.3,8.857,2.981,9.183,8.021c0.271,4.239,1.402,8.353,1.76,12.566c0.097,1.147-0.169,1.867-1.439,2.645
		c-3.32,2.03-2.326,5.332-1.258,7.809c1.747,4.044,1.151,7.953,1.187,12.062c0.045,5.859-4.348,8.82-7.563,12.674
		c-1.565,1.876-3.344,1.137-4.889,0.209c-1.579-0.952-0.948-2.376-0.272-3.628c0.643-1.196,1.114-2.401,1.159-3.771
		c0.059-1.867-0.438-3.5-2.576-3.902c-1.672-0.314-3.722-0.887-4.656,1.426c-0.18,0.441-0.804,1.286-1.461,0.933
		c-0.601-0.32-0.934-1.073-1.039-1.873c-0.319-2.454,1.417-4.38,1.905-6.656c1.012-4.706-2.505-11.292-7.212-12.394
		c-0.877-0.206-2.648,0.081-2.521-1.122c0.097-0.936,0.865-2.091,2.358-2.521c1.393-0.402,2.544-1.419,3.399-2.537
		c0.898-1.173,1.503-2.38,0.497-3.925c-1.598-2.451-2.162-4.836-0.186-7.65c1.498-2.134-0.595-6.597-3.259-7.863
		c-1.621-0.771-3.309-1.48-5.254-1.616c-3.072-0.213-4.337-1.478-4.492-4.281c-0.224-4.042-1.897-7.407-5.167-10.116
		c-1.762-1.459-3.485-2.703-6.162-1.856c-1.238,0.392-2.038-0.642-2.356-1.682c-0.837-2.732-2.44-4.771-5.487-5.708
		c-3.857-1.186-3.854-4.341-4.184-7.248c-0.326-2.909,0.741-5.747,0.622-8.691c-0.059-1.459,1.347-2.921,2.635-3.939
		c1.722-1.359,2.452,0.144,2.989,1.297c0.758,1.631,1.179,3.402,1.995,5.004c1.875,3.672,5.914,3.867,9.491,4.758
		c0.617,0.155,1.429-0.37,1.681,0.759C178.995,103.349,182.869,105.539,180.743,109.122z"/>
	<path fill="#FFFFFF" stroke="#008837" stroke-miterlimit="10" d="M134.96,397.154c-0.266-0.849-0.111-2.057,0.656-2.648
		c4.183-3.229,1.514-6.495,0.226-9.749c-0.692-1.751-2.264-3.175-2.067-5.274c0.086-0.914,0.241-1.569,1.219-1.894
		c4.258-1.402,7.292-4.361,10.501-7.07c0.894-0.758,1.87-1.546,2.878-0.829c0.88,0.623,1.775,1.517,1.158,2.999
		c-0.994,2.388,0.051,4.366,2.005,6.079c1.961,1.722,4.156,2.292,6.843,2.002c2.771-0.3,4.629-2.042,6.833-3.226
		c2.229-1.197,3.842-0.733,5.139,1.165c2.145,3.144,4.921,4.633,9.089,3.414c3.467-1.016,6.878,0.61,10.376,0.619
		c1.633,0,2.934,1.175,3.344,3.231c0.908,4.547,3.191,4.518,6.339,3.611c1.195-0.343,2.146-0.104,2.717,1.458
		c1.825,4.992,3.414,5.527,8.208,5.204c2.152-0.146,3.654,0.714,4.52,2.556c0.418,0.893,0.891,1.771,1.454,2.589
		c1.613,2.323,3.769,3.944,6.944,3.74c5.138-0.327,10.011,0.164,14.281,3.148c1.032,0.721,1.272,0.937-0.032,1.896
		c-2.778,2.033-6.089,3.022-9.095,4.58c-0.161,0.087-0.385,0.349-0.41,0.334c-3.854-2.866-10.335-1.302-12.827-6.435
		c-0.339-0.697-1.065-0.929-1.709-1.134c-4.251-1.334-7.721-4.717-12.786-4.006c-0.995,0.141-1.965,0.304-2.883,0.604
		c-4.139,1.356-8.027-0.591-12.055-0.731c-4.859-0.176-8.602-2.406-12.063-5.604c-3.653-3.372-12.654-3.536-16.384-1.075
		c-0.93,0.609-1.391,1.298-1.306,2.15c0.3,3.056-2.026,3.438-4.356,3.645c-3.962,0.35-7.721-0.815-11.455-1.768
		c-0.997-0.258-2.071-0.4-3.092-0.767C135.054,399.219,134.959,399.445,134.96,397.154z"/>
	<path fill="#FFFFFF" stroke="#008837" stroke-miterlimit="10" d="M291.501,186.578c5.359,0.318,10.52-1.349,15.524-3.483
		c1.758-0.75,3.357-1.048,5.151-0.19c4.722,2.26,8.659,0.631,12.304-2.22c2.757-2.156,5.554-2.702,8.948-0.978
		c2.067,1.051,4.374,1.637,6.974,0.616c4.476-1.755,7.829,0.431,10.859,3.235c5.087,4.703,10.187,9.388,15.294,14.072
		c0.591,0.543,1.185,1.134,1.894,1.518c0.821,0.445,1.939,0.952,1.645,1.756c-0.292,0.792-1.332,1.765-2.183,1.901
		c-3.317,0.518-6.699,0.67-10.032,1.093c-1.578,0.199-2.006-1.089-2.984-1.633c-4.453-2.478-8.557-4.166-14.29-2.282
		c-5.431,1.784-11.414,2.396-17.508,1.374c-7.68-1.288-15.251-0.2-22.236,3.212c-3.163,1.545-6.882,0.177-9.986,1.904
		c-1.342,0.747-2.975,1.055-4.309,1.812c-3.76,2.136-10.084,0.711-12.36-2.816c-0.427-0.659-0.143-0.92,0.265-1.293
		c0.805-0.74,1.472-1.794,2.445-2.16c4.663-1.767,5.618-5.642,6.701-9.482c0.089-0.32,0.001-0.685,0.102-1
		C285.284,186.577,285.29,186.578,291.501,186.578z"/>
	<path fill="#FFFFFF" stroke="#008837" stroke-miterlimit="10" d="M184.125,77.093c2.191-0.412,3.956,0.744,5.873,1.084
		c5.357,0.95,9.607-2.943,9.875-7.374c0.249-4.143,0.168-4.144,4.879-5.32c3.066-0.767,6.044-0.97,9.061,0.401
		c1.791,0.814,3.859,0.896,6.773,0.381c-1.751,1.994-2.899,3.351-4.104,4.662c-2.591,2.815-2.354,4.673,0.886,6.641
		c3.958,2.404,3.5,8.285-0.713,10.564c-1.76,0.952-3.627,1.684-5.369,2.702c-5.946,3.487-7.103,9.986-0.49,14.386
		c2.026,1.346,3.707,3.162,4.998,5.169c1.004,1.565,1.157,2.942-1.437,3.353c-1.108,0.174-2.243,0.518-3.222,1.021
		c-4.108,2.106-4.302,3.307-1.594,6.934c1.061,1.419,2.551,2.662,4.294,3.63c2.167,1.204,2.363,3.348,1.851,5.431
		c-0.15,0.613-0.406,1.928-2.007,0.823c-1.052-0.723-2.685-1.074-4.033-1.021c-2.857,0.113-4.903-1.108-6.744-2.822
		c-1.752-1.632-4.125-2.216-6.317-2.387c-4.439-0.345-7.301-2.508-9.2-5.843c-1.375-2.416-2.49-4.979-3.585-7.542
		c-0.836-1.96,0.542-3.396,0.241-5.146c-0.241-1.413-0.102-3.005-1.247-3.969c-2.843-2.395-1.667-5.1-0.31-7.237
		c2.087-3.286,2.563-6.844,3.095-10.383C185.986,82.519,185.031,79.805,184.125,77.093z"/>
	<path fill="#FFFFFF" stroke="#008837" stroke-miterlimit="10" d="M253.847,255.282c0.124,2.14,0.589,3.601-0.917,5.042
		c-0.914,0.872-1.26,2.286-1.743,3.497c-1.125,2.821-3.182,4.453-6.477,4.971c-2.362,0.372-3.873-0.343-3.745-2.649
		c0.224-4.043-2.658-5.673-5.928-7.065c-1.771-0.756-3.195,0.443-4.384,1.268c-1.203,0.84-0.685,2.404-0.397,3.604
		c0.317,1.33,1.042,2.576,1.511,3.885c1.312,3.663,0.341,5.576-3.307,7.553c-2.833,1.53-6.183,2.001-8.82,3.875
		c-2.463,1.749-4.473,3.937-7.216,6.674c0-3.085,0.005-5.372-0.001-7.661c-0.01-3.487-1.718-4.709-5.252-3.596
		c-2.279,0.714-4.598,0.536-6.887,0.447c-2.405-0.093-3.694-2.396-2.457-5.018c2.731-5.793,1.911-11.846,2.094-17.84
		c0.019-0.677-0.415-1.085-0.57-1.628c-1.129-3.965-0.989-3.929,0.64-7.905c0.987-2.406,1.574-4.927,0.646-7.573
		c-0.49-1.398-0.637-2.776,1.809-3.131c1.4-0.203,2.77-1.126,3.938-1.973c0.81-0.589,1.627-0.669,2.334-0.401
		c0.675,0.256,0.184,1.099,0.277,1.677c0.056,0.334,0.102,0.71-0.008,1.023c-0.586,1.679-1.693,3.29-0.612,5.147
		c1.441,2.486,3.653,4.335,6.243,5.641c2.968,1.497,6.839,0.674,8.359-1.638c0.755-1.145,1.121-2.576,1.373-3.92
		c0.61-3.249,3.743-4.437,6.537-2.267c3.064,2.379,5.117,5.595,7.739,8.345c0.56,0.588,0.635,1.26-0.174,2.125
		c-3.316,3.542-2.093,6.942,2.878,8.394c1.63,0.475,3.15,1.14,4.454,2.152C249.621,259.315,250.575,259.256,253.847,255.282z"/>
	<path fill="#FFFFFF" stroke="#008837" stroke-miterlimit="10" d="M197.047,258.732c0.537,3.17-0.311,7.016-1.698,10.82
		c-1.87,5.117,0.279,8.014,6.052,8.211c2.193,0.077,4.423,0.231,6.482-0.774c1.373-0.675,1.469-0.133,1.77,1.119
		c1.123,4.637-1.713,7.661-4.805,10.521c-3.37,3.116-5.222,6.883-6.046,11.089c-0.314,1.614-1.634,2.238-2.706,3.101
		c-0.293,0.24-1.482,0.697-1.935-0.577c-1.174-3.325-4.824-4.2-7.673-1.854c-0.972,0.802-1.934,1.462-3.179,1.842
		c-2.748,0.838-4.693,2.364-5.663,5.045c-0.679,1.873-2.344,3.293-4.344,4.025c-2.167,0.798-4.056,2.006-5.991,3.112
		c-1.316,0.75-2.528,1.561-3.723,0.366c-1.442-1.438-3.792-2.313-3.313-5.065c1.252-7.211,4.738-13.564,8.232-19.985
		c3.591-6.598,6.506-13.484,8.534-20.65c0.251-0.895-0.114-1.928,0.106-2.837c0.468-1.938,0.25-4.163,2.941-5.195
		c1.129-0.432,1.555-1.724,1.599-3.017c0.21-6.097,2.339-8.345,8.931-9.593c0.356-0.067,0.743-0.021,1.083-0.118
		c1.152-0.336,2.501-1.602,3.42-0.688c1.142,1.142,2.019,2.695,1.942,4.482C196.982,254.031,197.047,255.953,197.047,258.732z"/>
	<path fill="#FFFFFF" stroke="#008837" stroke-miterlimit="10" d="M146.353,277.017c-0.858-5.804,2.419-10.567,7.358-14.657
		c2.18-1.806,5.777-1.044,6.869,1.39c0.339,0.755,0.895,1.504,1.561,2.035c0.877,0.696,0.994,1.598,0.688,2.351
		c-1.524,3.721,0.001,7.001,1.59,10.277c0.647,1.332,1.15,2.716,1.85,4.043c1.769,3.357,0.394,6.407-1.699,9.224
		c-3.789,5.102-5.416,10.942-6.758,16.851c-0.333,1.473-0.609,1.336-1.907,0.915c-4.691-1.517-8.889,0.419-10.753,4.769
		c-0.929,2.17-2.657,2.833-4.868,1.712c-3.811-1.938-6.384-1.378-9.052,1.147c-3.155,2.98-6.604,2.827-11.656-0.258
		c-0.384-0.232-0.683-0.61-1.091-0.778c-1.099-0.458-2.236-0.839-3.357-1.252c0.99-1.298,1.757-2.825,3.016-3.84
		c3.12-2.523,5.037-5.804,6.507-9.164c2.478-5.657-0.896-9.119-7.357-7.665c-2.617,0.587-4.094,0.055-5.22-2.007
		c-0.478-0.877-1.19-1.675-1.517-2.591c-0.379-1.061-0.19-2.288,0.602-3.085c0.603-0.611,1.707-0.305,2.619-0.095
		c6.9,1.606,13.548,4.315,20.967,3.554c2.991-0.307,5.875-0.873,8.396-2.245c2.569-1.398,2.991-4.038,3.197-6.583
		C146.43,279.936,146.353,278.795,146.353,277.017z"/>
	<path fill="#FFFFFF" stroke="#008837" stroke-miterlimit="10" d="M202.07,216.848c1.529,3.224,4.199,4.632,7.764,4.982
		c0.671,0.067,1.483,0.918,1.806,1.581c0.959,1.973,2.731,2.88,4.813,3.255c3.067,0.552,5.949,1.625,8.938,2.373
		c3.972,0.993,9.107-2.798,9.236-6.68c0.063-1.829,0.057-3.664-0.041-5.494c-0.031-0.631,0.504-0.896,0.647-1.378
		c0.371,0.234,0.734,0.484,1.115,0.706c2.407,1.4,2.187,3.831,1.558,5.568c-0.673,1.852,0.024,2.828,1.186,3.675
		c1.197,0.868,2.769,0.699,4.15,0.079c1.691-0.763,3.351-1.512,4.237-3.27c1.202-2.382,3.392-3.981,5.802-5.263
		c7.097-3.78,7.732-7.09,6.536-14.717c-0.137-0.859,0.718-1.14,0.541-1.814c0.583,0.218,1.149,0.277,1.664,0.833
		c2.1,2.27,5.061,2.082,6.771-0.413c0.859-1.252,1.661-2.405,3.074-3.285c3.314-2.065,5.135-8.589,2.186-12.598
		c-1.305-1.774-0.028-1.441,0.925-1.734c1.858-0.565,6.75,0.883,7.808,2.284c0.333,0.44,0.182,0.679-0.042,1.114
		c-1.311,2.52-1.745,5.29-2.549,7.955c-0.681,2.235-2.038,3.909-4.279,5.185c-5.121,2.92-6.712,7.247-4.788,12.594
		c0.697,1.937,0.661,3.891,0.483,5.817c-0.21,2.261,0.866,3.592,2.883,4.567c1.049,0.51,2.534,0.625,2.321,2.319
		c-0.207,1.624-0.967,2.639-2.565,3.502c-1.931,1.042-4.403,1.031-5.974,2.545c-2.125,2.05-4.171,3.581-7.673,3.348
		c-1.759-0.116-3.132,1.734-3.195,3.797c-0.099,3.208-0.716,6.217-3.184,8.789c-0.927,0.962-1.463,2.46-1.341,3.909
		c0.084,0.98-0.231,1.824-0.796,2.588c-1.703,2.296-2.819,2.463-5.144,0.652c-1.33-1.034-2.762-1.675-4.454-2.134
		c-3.133-0.85-3.665-2.742-1.496-5.008c1.588-1.66,1.084-3.256-0.084-4.667c-2.875-3.475-5.478-7.262-9.517-9.694
		c-2.039-1.23-4.679-0.942-6.884-0.025c-2.049,0.854-3.058,2.482-3.012,4.73c0.066,3.221-2.481,4.482-5.79,3.294
		c-2.195-0.787-3.418-2.398-4.731-3.925c-1.065-1.238,0.066-2.728,0.494-3.796c0.896-2.248,0.533-4.198-1.233-5.456
		c-1.903-1.358-4.098-0.581-5.918,0.805c-0.625,0.472-1.305,0.936-2.047,1.205c-0.358,0.13-1.223,0.272-1.227-0.574
		C201.03,224.965,201.259,220.973,202.07,216.848z"/>
	<path fill="#FFFFFF" stroke="#008837" stroke-miterlimit="10" d="M233.358,148.314c3.772-0.004,4.013,0.426,2.525,3.376
		c-1.503,2.986-2.058,5.923,0.32,8.918c1.827,2.303,0.723,4.954-2.226,5.831c-1.771,0.527-3.592,0.97-5.426,1.238
		c-2.406,0.353-3.164-0.602-2.625-2.76c0.626-2.519-0.207-4.859-2-6.69c-1.085-1.111-1.109-2.19-1.297-3.482
		c-0.853-5.86-1.346-11.771-2.768-17.558c-0.107-0.44-0.288-0.751-0.508-1.123c-1.177-1.984-1.88-3.855-0.772-6.292
		c0.822-1.806-0.502-3.724-2.031-5.172c-1.521-1.439-3.115-2.818-4.616-4.273c-1.324-1.283-1.8-2.478,0.58-3.288
		c1.476-0.503,2.945-1.068,4.337-1.749c2.57-1.255,3.237-2.902,1.846-5.189c-1.264-2.08-2.494-4.215-4.959-5.503
		c-1.271-0.667-2.399-1.785-3.224-2.926c-2.908-4.014-1.743-6.156,2.625-8.919c2.047-1.294,4.445-2.031,6.371-3.589
		c3.99-3.226,4.025-6.294,2.342-10.294c-0.863-2.053-0.159-2.169,1.43-2.682c3.871-1.247,7.285-1.037,10.123,2.042
		c1.658,1.799,2.264,3.57,1.275,5.954c-1.646,3.966-1.015,5.005,3.255,6.456c0.553,0.187,0.779,0.349,0.694,0.859
		c-0.556,3.32,1.435,6.097,2.32,9.104c1.279,4.349-0.469,8.074-2.766,11.659c-1.808,2.825-4.544,5.563-5.336,8.438
		c-1.343,4.88-5.068,9.56-2.83,15.11c0.524,1.297-0.235,2.755-1.174,3.972c-1.528,1.98-1.326,3.92-0.091,6.064
		C229.872,147.782,231.256,148.726,233.358,148.314z"/>
	<path fill="#FFFFFF" stroke="#008837" stroke-miterlimit="10" d="M227.101,72.877c-2.136,0.435-4.784,0.829-7.249,1.808
		c-0.741,0.293-1.572,0.494-2.073,0.071c-0.705-0.594,0.252-1.202,0.513-1.713c1.167-2.301,3.509-3.824,4.403-6.498
		c0.518-1.556,3.665-1.629,5.642-2.255c5.012-1.588,8.367-4.897,11.437-8.597c3.458-4.166,7.635-7.082,13.502-8.093
		c5.212-0.899,9.184-3.47,11.222-8.553c1.093-2.723,1.768-6.538,5.326-7.513c3.955-1.084,7.127-2.955,10.229-5.274
		c1.58-1.183,3.884-0.918,5.648-0.5c3.16,0.749,6.849,0.043,9.442,2.414c4.639,4.237,3.302,6.249-1.259,9.756
		c-5.238,4.031-10.934,7.208-17.738,8.753c-4.392,0.996-6.519,4.697-7.84,8.345c-1.381,3.809-3.201,6.5-7.692,8.061
		c-5.299,1.844-8.292,6.566-11.66,10.566c-2.637,3.129-4.807,6.585-7.388,9.755c-0.855,1.047-1.07,2.247-1.7,3.326
		c-0.459,0.785,0.102,2.138-1.875,1.567c-1.798-0.517-1.409-1.545-1.053-2.57c2.171-6.259-1.078-11.595-7.944-12.938
		C228.55,72.705,228.053,72.827,227.101,72.877z"/>
	<path fill="#FFFFFF" stroke="#008837" stroke-miterlimit="10" d="M263.073,184.48c-5.459,0-6.828-1.283-7.39-6.174
		c-0.526-4.576-4.67-7.463-9.64-7.96c-2.6-0.262-4.988,0.174-7.318,1.528c-1.791,1.041-4.03,0.894-5.987-0.03
		c-0.614-0.292-1.412-0.972-1.416-1.479c-0.002-0.833,1.126-0.98,1.85-1.06c2.005-0.219,3.555-1.119,4.91-2.408
		c1.958-1.867,2.393-5.076,0.708-7.108c-1.856-2.242-1.721-4.445-0.426-6.786c1.467-2.65,1.09-4.621-0.716-6.456
		c-1.043-1.061-2.202-0.935-3.343-0.837c-2.503,0.216-4.888-1.921-3.579-3.741c2.524-3.499,1.647-7.146,1.611-10.794
		c-0.021-2.325,0.224-3.969,3.623-3.377c2.181,0.38,4.001-1.256,5.803-2.167c4.634-2.343,7.702-1.154,8.846,3.674
		c0.411,1.733,1.028,3.444,1.75,5.093c1.391,3.19,3.848,5.447,7.092,7.237c6.174,3.406,7.883,8.817,4.771,15.134
		c-2.327,4.726-0.694,13.138,3.648,16.135c1.875,1.296,4.222,1.959,5.762,3.69c0.476,0.534,1.269,0.975,1.427,1.568
		c0.222,0.831,1.679,1.104,1.113,2.167c-0.578,1.083-1.649,0.381-2.47,0.45c-1.968,0.17-3.527,1.151-5.055,2.083
		C266.833,183.965,265.032,184.778,263.073,184.48z"/>
	<path fill="#FFFFFF" stroke="#008837" stroke-miterlimit="10" d="M210.456,286.966c0.637,1.845-0.208,3.205-0.721,4.528
		c-1.478,3.804-2.583,7.659-3.031,11.697c-0.171,1.525-1.5,2.479-2.865,3.444c-4.257,3.021-7.344,6.917-7.253,12.027
		c0.057,3.211-1.182,5.243-4.111,6.546c-3.706,1.648-5.289,5.147-8.053,7.544c-4.105,3.558-3.904,8.549-6.177,12.648
		c-1.27,2.298-2.735,4.534-4.859,6.296c-1.243,1.029-2.215,2.211-2.818,3.652c-2.234,5.324-7.533,5.735-12.802,4.979
		c-1.365-0.195-2.685-0.477-3.55-1.646c-0.271-0.363-0.66-0.672-0.453-1.134c1.447-3.26-1.174-4.437-3.562-5.266
		c-2.101-0.73-1.825-1.354-0.5-2.339c1.19-0.883,2.435-1.729,3.753-2.438c2.956-1.585,3.577-4.228,1.573-6.977
		c-0.666-0.91-1.88-1.708-0.919-3.056c0.938-1.311,2.019-0.661,3.331-0.522c4.823,0.512,9.204-1.224,13.357-3.184
		c2.014-0.952,1.556-3.298,1.053-4.772c-1.127-3.306-2.049-6.749-4.106-9.723c-0.975-1.418-0.574-2.068,0.932-2.741
		c2.06-0.926,4.059-1.979,6.001-3.1c2.053-1.187,3.828-2.7,4.957-4.713c1.006-1.793,2.26-3.278,4.395-4.021
		c1.688-0.586,3.271-1.253,4.597-2.533c0.863-0.835,2.167-1.588,2.798,0.721c0.796,2.926,4.228,3.696,6.9,1.716
		c1.792-1.331,3-3.001,3.339-5.284C202.186,295.793,205.503,290.556,210.456,286.966z"/>
	<path fill="#FFFFFF" stroke="#008837" stroke-miterlimit="10" d="M155.608,128.094c0.901-1.77,2.096-2.378,2.612-3.526
		c1.081-2.401,1.139-4.547-1.076-6.418c-1.572-1.327-1.559-2.759-0.405-4.292c0.153-0.204,0.281-0.424,0.441-0.621
		c1.051-1.285,0.826-3.162,2.319-4.24c1.721,2.191,5.663,1.886,6.401,5.483c0.651,3.186,2.318,3.802,5.735,3.412
		c1.408-0.161,2.819,0.53,3.39,1.197c2.066,2.425,4.653,4.597,4.443,8.266c-0.233,4.093,2.421,6.346,7.863,7.318
		c1.657,0.297,3.063,0.833,4.242,2.014c1.453,1.453,2.053,2.905,0.76,4.675c-1.841,2.517-1.749,4.914,0.141,7.452
		c1.273,1.708,0.629,2.981-1.335,4.286c-2.983,1.982-5.112,1.133-7.62-0.646c-3.16-2.241-5.764-2.056-9.089,0.159
		c-1.405,0.936-3.849,0.231-4.12-1.667c-0.571-3.976-2.13-7.997,1.906-11.708c2.897-2.664,2.154-5.413-2.785-8.215
		C165.396,128.733,161.062,127.172,155.608,128.094z"/>
	<path fill="#FFFFFF" stroke="#008837" stroke-miterlimit="10" d="M197.44,232.205c0.469,2.497,0.983,4.843,0.746,7.241
		c-0.256,2.588-1.174,4.56-4.291,5.4c-3.613,0.97-7.134,2.263-10.621,3.582c-2.69,1.019-3.928,3.054-3.889,5.736
		c0.011,0.873,0.011,1.744-0.013,2.616c-0.03,1.062-0.417,2.146-1.425,2.543c-1.095,0.434-0.953-0.971-1.575-1.428
		c-2.184-1.615-4.518-2.653-7.372-2.669c-1.9-0.012-3.959,0.479-5.579-0.842c-0.787-0.643-2.185-1.237-1.638-2.459
		c0.473-1.055,1.733-1.315,2.99-1.421c1.507-0.124,3.09,0.504,4.501-0.799c1.042-0.962,1.259-2.022,0.947-3.041
		c-0.914-2.962-0.336-6.048-1.08-9.009c-0.335-1.333,0.642-1.488,1.626-1.274c5.646,1.225,11.211,0.928,16.769-0.495
		C190.959,235.01,194.31,234.008,197.44,232.205z"/>
	<path fill="#FFFFFF" stroke="#008837" stroke-miterlimit="10" d="M182.868,84.832c0.313,4.406-1.99,8.159-3.79,11.964
		c-0.555,1.172-2.66,0.231-3.886,0.037c-3.365-0.537-6.012-2.247-6.587-5.603c-0.25-1.459-0.958-2.8-1.812-3.728
		c-1.842-2.001-0.556-3.203,0.928-4.098c2.311-1.392,4.198-3.184,5.468-5.278c1.118-1.846,2.917-2.119,4.583-2.629
		c2.038-0.623,3.807,1.056,4.469,4.062c0.195,0.889-0.028,1.775,0.545,2.699C183.196,82.914,182.868,83.959,182.868,84.832z"/>
	<path fill="#FFFFFF" stroke="#008837" stroke-miterlimit="10" d="M167.891,257.864c4.65-0.003,5.829,0.995,7.04,3.85
		c1.139,2.684-1.282,2.718-2.411,2.912c-2.319,0.402-4.758-0.222-7.152,0.534c-1.1,0.346-1.555-0.972-1.683-1.644
		c-0.725-3.879-3.947-4.354-7.249-4.551c-1.339-0.079-2.115-0.199-2.423-1.568c-0.24-1.068-1.249-1.654-2.257-2.316
		c-1.61-1.054-3.657-2.424-3.053-4.482c0.692-2.369,2.682-4.186,4.766-5.753c0.507-0.382,0.813,0.181,1.144,0.442
		c1.846,1.459,3.93,1.782,6.236,1.146c0.341-0.092,0.718-0.098,1.079-0.095c1.882,0.009,3.823-0.251,5.465,0.938
		c-1.359,1.45-3.222,1.18-4.959,1.136c-1.657-0.043-2.473,1.099-2.945,2.059c-0.675,1.359-1.01,2.931,0.35,4.369
		C162.072,257.213,164.846,258.13,167.891,257.864z"/>
	<path fill="#FFFFFF" stroke="#008837" stroke-miterlimit="10" d="M168.973,282.338c-1.171-4.229-4.407-7.473-3.858-11.897
		c0.251-2.018,0.757-3.474,3.437-3.157c0.936,0.11,1.918,0.173,2.838,0.025c3.132-0.498,3.273-0.238,2.554,2.691
		c-0.822,3.361-2.21,6.519-3.784,9.587C169.75,280.391,170.121,281.302,168.973,282.338z"/>
</g>
</svg>
